<svg width="750" height="120" viewBox="0 0 750 120" fill="none" xmlns="http://www.w3.org/2000/svg">
<path d="M24.9608 100.406L24.9608 79.3616C18.3057 79.3772 7.80707 79.5385 0.0259933 79.5385V73.5258H30.6198C30.6276 77.1041 30.6198 83.429 30.6198 86.9659H45.4745V33.2057H30.6198L30.6197 47.3531H0.202814C0.188977 46.1616 0.202814 42.9321 0.202831 42.0479C8.51438 42.0479 16.97 42.0289 25.3145 42.0479V20.1194C21.2284 20.1286 4.09335 20.1619 0.202831 20.1619V14.4604C10.2829 14.4604 20.4881 14.3245 30.6198 14.3245C30.6306 17.2246 30.6802 24.8868 30.6198 27.9004C34.4418 27.8608 45.2089 27.9004 50.8678 27.9004C50.7798 36.212 50.7663 49.092 50.8678 57.2563C55.539 57.161 98.6822 57.1836 117.029 57.1296C121.145 57.1175 121.608 57.1015 122.688 57.0795V63.6227C118.011 63.6061 53.7861 63.6227 50.7798 63.6227C50.8261 74.3305 50.7798 82.0143 50.7798 92.6248C44.0613 92.6248 37.3407 92.6711 30.6198 92.6248C30.6708 96.0195 30.6198 101.397 30.6198 106.121H0.0259933C-0.032423 104.585 0.0259933 101.997 0.0259933 100.406C6.92285 100.406 18.6192 100.376 24.9608 100.406Z" fill="#EDB73E"/>
<path d="M122.688 57.0795V51.2437H117.029V57.1296C121.145 57.1175 121.608 57.1015 122.688 57.0795Z" fill="#EDB73E"/>
<path d="M117.029 63.6173V69.3374L122.688 69.3427V63.6227L117.029 63.6173Z" fill="#EDB73E"/>
<path d="M230.005 100.406L230.005 79.3616C236.66 79.3772 247.159 79.5385 254.94 79.5385V73.5258H224.346C224.338 77.1041 224.346 83.429 224.346 86.9659H209.491V33.2057H224.346L224.346 47.3531H254.763C254.777 46.1616 254.763 42.9321 254.763 42.0479C246.451 42.0479 237.996 42.0289 229.651 42.0479V20.1194C233.737 20.1286 250.872 20.1619 254.763 20.1619V14.4604C244.683 14.4604 234.478 14.3245 224.346 14.3245C224.335 17.2246 224.286 24.8868 224.346 27.9004C220.524 27.8608 209.757 27.9004 204.098 27.9004C204.186 36.212 204.2 49.092 204.098 57.2563C199.427 57.161 156.284 57.1836 137.937 57.1296C133.821 57.1175 133.358 57.1015 132.278 57.0795V63.6227C136.954 63.6061 201.18 63.6227 204.186 63.6227C204.14 74.3305 204.186 82.0143 204.186 92.6248C210.904 92.6248 217.625 92.6711 224.346 92.6248C224.295 96.0195 224.346 101.397 224.346 106.121H254.94C254.998 104.585 254.94 101.997 254.94 100.406C248.043 100.406 236.347 100.376 230.005 100.406Z" fill="#EDB73E"/>
<path d="M132.278 57.0795V51.2437H137.937V57.1296C133.821 57.1175 133.358 57.1015 132.278 57.0795Z" fill="#EDB73E"/>
<path d="M137.937 63.6173V69.3374L132.278 69.3427V63.6227L137.937 63.6173Z" fill="#EDB73E"/>
<circle cx="128.211" cy="59.7729" r="29.5327" stroke="#EDB73E" stroke-width="5.30528"/>
<circle cx="128.211" cy="59.7727" r="57.1202" stroke="#FAF5EF" stroke-width="5.30528"/>
<path d="M291.775 14.345H315.096L321.588 48.334L342.505 14.345H359.095L348.756 68.2008H333.85L339.86 40.4351L321.588 68.2008H311.49L304.998 40.4351L299.228 68.2008H283.119L295.381 20.8077L291.775 14.345Z" fill="#FAF5EF"/>
<path fill-rule="evenodd" clip-rule="evenodd" d="M354.77 68.295L383.929 19.9264L380.989 14.2505H405.248L417.5 68.295H400.347L398.387 59.4109H376.578L370.452 68.295H354.77ZM383.929 45.3446C386.707 40.9026 392.702 31.525 394.466 29.5507L396.426 45.3446H383.929Z" fill="#FAF5EF"/>
<path d="M415.602 14.2087L413.175 26.3451H429.438L421.913 68.3368H438.661L445.943 26.3451H463.177L466.089 14.2087H415.602Z" fill="#FAF5EF"/>
<path d="M528.179 24.8234C528.649 21.772 529.313 17.4644 529.633 15.39C529.852 13.9688 529.754 14.1806 528.368 14.1806H489.107C483.862 14.6644 480.959 16.5994 478.748 23.9872L476.098 37.7165C475.154 43.4483 478.748 48.0134 485.011 48.0134H508.292C509.154 48.0134 509.266 47.9036 509.1 48.7697C508.775 50.4629 508.188 53.3655 508.014 54.5749C507.932 55.1507 507.808 55.2273 507.487 55.2273C503.895 55.2273 479.797 55.1448 474.67 55.1267C473.64 55.1231 473.711 55.0372 473.459 56.0262C472.326 60.4729 471.691 62.9659 470.558 67.4127C470.264 68.5651 470.344 68.3621 471.526 68.3621C487.987 68.3621 513.679 68.3621 513.679 68.3621C518.934 68.3621 521.595 66.669 522.833 60.0265L525.965 42.3746C526.675 38.6107 523.288 35.2243 517.774 35.0197C517.774 35.0197 503.212 35.2243 493.779 35.2759C492.91 35.2807 492.939 35.344 493.14 34.4987C493.633 32.4205 493.909 30.2879 494.402 28.2097C494.654 27.1455 494.64 27.1745 495.714 27.1586C495.714 27.1586 515.46 26.8674 525.965 26.7125C527.996 26.6825 527.87 26.8276 528.179 24.8234Z" fill="#EDB73E"/>
<path fill-rule="evenodd" clip-rule="evenodd" d="M525.398 68.295L554.557 19.9264L551.617 14.2505H575.876L588.128 68.295H570.975L569.015 59.4109H547.206L541.08 68.295H525.398ZM554.557 45.3446C557.334 40.9026 563.33 31.525 565.094 29.5507L567.054 45.3446H554.557Z" fill="#EDB73E"/>
<path d="M583.803 14.3948H600.616L608.431 49.9163L621.219 14.3948H637.085L614.825 68.1507H597.301L583.803 14.3948Z" fill="#EDB73E"/>
<path d="M640.085 14.1221H657.069L664.963 50.004L677.881 14.1221H693.908L671.422 68.4234H653.72L640.085 14.1221Z" fill="#EDB73E"/>
<path d="M719.404 32.0807L714.083 14.4224H696.908L709.487 46.1106L704.891 68.1231H720.856L724.484 47.562L749.158 14.4224H733.192L719.404 32.0807Z" fill="#EDB73E"/>
<path d="M283.119 90.8356L341.723 88.9573C343.102 88.9131 344.244 90.0191 344.244 91.3989C344.244 92.7972 343.073 93.9101 341.676 93.8385L283.119 90.8356Z" fill="#FAF5EF"/>
<path d="M379.711 84.2801C381.036 84.2801 381.901 85.3346 381.685 86.6596L380.63 92.6083C380.36 93.9603 379.197 94.9608 377.818 94.9878H372.166C371.869 95.0149 371.653 95.2042 371.599 95.4746L370.625 100.964C370.571 101.234 370.328 101.423 370.057 101.45H364.352C364.217 101.45 364.109 101.396 364.027 101.288C363.946 101.207 363.919 101.072 363.946 100.964L366.813 84.7397C366.867 84.4693 367.083 84.2801 367.38 84.2801H379.711ZM374.573 89.0391C374.6 88.9309 374.573 88.7957 374.492 88.7146C374.411 88.6064 374.303 88.5524 374.194 88.5524H373.302C373.005 88.5794 372.788 88.7687 372.734 89.0391L372.518 90.2288C372.491 90.337 372.518 90.4722 372.599 90.5533C372.68 90.6615 372.788 90.7155 372.924 90.7155H373.816C374.086 90.6885 374.303 90.4992 374.357 90.2288L374.573 89.0391ZM397.204 84.2801C398.529 84.2801 399.394 85.3346 399.178 86.6596L398.123 92.6083C397.88 93.717 397.069 94.5822 396.014 94.9067L396.501 100.828C396.501 101.153 396.258 101.423 395.933 101.423H390.39C389.984 101.45 389.633 101.126 389.606 100.72L389.146 95.3123C389.119 95.3664 389.092 95.4205 389.092 95.4746L388.119 100.964C388.065 101.234 387.821 101.423 387.551 101.45H381.845C381.71 101.45 381.602 101.396 381.521 101.288C381.44 101.207 381.413 101.072 381.44 100.964L384.306 84.7397C384.36 84.4693 384.577 84.2801 384.874 84.2801H397.204ZM392.067 89.0391C392.094 88.9309 392.067 88.7957 391.985 88.7146C391.904 88.6064 391.796 88.5524 391.688 88.5524H390.796C390.498 88.5794 390.282 88.7687 390.228 89.0391L390.012 90.2288C389.984 90.337 390.012 90.4722 390.093 90.5533C390.174 90.6615 390.282 90.7155 390.417 90.7155H391.309C391.58 90.6885 391.796 90.4992 391.85 90.2288L392.067 89.0391ZM416.828 84.2801C416.963 84.253 417.071 84.3071 417.153 84.4153C417.234 84.4964 417.261 84.6316 417.234 84.7397L416.639 88.0927C416.585 88.3631 416.368 88.5524 416.071 88.5524H408.527C408.229 88.5794 408.013 88.7687 407.959 89.0391L407.743 90.2288C407.716 90.337 407.743 90.4722 407.824 90.5533C407.905 90.6615 408.013 90.7155 408.148 90.7155H415.692C415.828 90.6885 415.936 90.7426 416.017 90.8507C416.098 90.9319 416.125 91.0671 416.098 91.1752L415.503 94.5282C415.449 94.7986 415.233 94.9878 414.935 94.9878H407.391C407.094 95.0149 406.877 95.2042 406.823 95.4746L406.607 96.6643C406.58 96.7725 406.607 96.9077 406.688 96.9888C406.769 97.097 406.877 97.151 407.013 97.151H414.557C414.692 97.151 414.8 97.1781 414.881 97.2862C414.962 97.3674 414.989 97.5026 414.962 97.6107L414.367 100.964C414.313 101.234 414.097 101.423 413.827 101.423L399.577 101.45C399.441 101.45 399.333 101.396 399.252 101.288C399.171 101.207 399.144 101.072 399.171 100.964L402.037 84.7397C402.091 84.4693 402.308 84.2801 402.605 84.2801H416.828ZM432.799 84.2801C434.123 84.2801 434.989 85.3346 434.772 86.6596L432.582 99.0438C432.312 100.396 431.149 101.396 429.77 101.45H417.44C417.305 101.45 417.197 101.396 417.115 101.288C417.034 101.207 417.007 101.072 417.034 100.964L419.901 84.7397C419.955 84.4693 420.171 84.2801 420.468 84.2801H432.799ZM427.661 89.0391C427.688 88.9309 427.661 88.7957 427.58 88.7146C427.499 88.6064 427.391 88.5524 427.282 88.5524H426.39C426.093 88.5794 425.876 88.7687 425.822 89.0391L424.47 96.6643C424.443 96.7725 424.47 96.9077 424.551 96.9888C424.633 97.097 424.741 97.151 424.876 97.151H425.768C426.039 97.124 426.255 96.9347 426.309 96.6643L427.661 89.0391ZM444.09 84.2801C444.225 84.253 444.333 84.3071 444.414 84.4153C444.495 84.4964 444.522 84.6316 444.495 84.7397L441.629 100.964C441.575 101.234 441.332 101.423 441.061 101.45H435.356C435.221 101.45 435.113 101.396 435.031 101.288C434.95 101.207 434.923 101.072 434.95 100.964L437.817 84.7397C437.871 84.4693 438.087 84.2801 438.384 84.2801H444.09ZM462.019 84.2801C462.128 84.253 462.263 84.3071 462.344 84.4153C462.398 84.4964 462.452 84.6316 462.425 84.7397L461.83 88.0927C461.776 88.3631 461.533 88.5524 461.262 88.5524H453.691C453.421 88.5794 453.177 88.7687 453.123 89.0391L451.798 96.6643C451.771 96.7725 451.798 96.9077 451.852 96.9888C451.933 97.097 452.069 97.151 452.177 97.151H459.748C459.883 97.151 459.991 97.1781 460.072 97.2862C460.154 97.3674 460.181 97.5026 460.154 97.6107L459.559 100.964C459.505 101.234 459.261 101.423 458.991 101.423H446.661C445.336 101.423 444.47 100.369 444.687 99.0438L446.877 86.6596C447.147 85.3076 448.31 84.3071 449.689 84.2801H462.019ZM478.297 84.2801C478.406 84.253 478.541 84.3071 478.595 84.4153C478.676 84.4964 478.703 84.6316 478.676 84.7397L478.108 88.0927C478.054 88.3631 477.811 88.5524 477.54 88.5524H474.214C473.944 88.5794 473.728 88.7687 473.674 89.0391L471.564 100.964C471.51 101.234 471.267 101.423 470.997 101.45H465.291C465.156 101.45 465.048 101.396 464.967 101.288C464.886 101.207 464.859 101.072 464.886 100.964L466.995 89.0391C467.022 88.9309 466.995 88.7957 466.914 88.7146C466.832 88.6064 466.724 88.5524 466.589 88.5524H463.29C463.155 88.5524 463.047 88.5253 462.966 88.4172C462.885 88.336 462.858 88.2008 462.885 88.0927L463.48 84.7397C463.534 84.4693 463.777 84.2801 464.047 84.2801H478.297ZM480.005 99.9578C480.005 99.6233 480.049 99.3417 480.137 99.1128C480.225 98.8751 480.344 98.6859 480.494 98.5451C480.643 98.3954 480.819 98.2898 481.022 98.2282C481.224 98.1578 481.444 98.1226 481.682 98.1226C481.911 98.1226 482.126 98.1578 482.329 98.2282C482.54 98.2898 482.721 98.3954 482.87 98.5451C483.02 98.6859 483.139 98.8751 483.227 99.1128C483.315 99.3417 483.359 99.6233 483.359 99.9578C483.359 100.283 483.315 100.565 483.227 100.803C483.139 101.032 483.02 101.221 482.87 101.371C482.721 101.52 482.54 101.63 482.329 101.701C482.126 101.771 481.911 101.806 481.682 101.806C481.444 101.806 481.224 101.771 481.022 101.701C480.819 101.63 480.643 101.52 480.494 101.371C480.344 101.221 480.225 101.032 480.137 100.803C480.049 100.565 480.005 100.283 480.005 99.9578ZM601.18 84.2801C601.316 84.253 601.424 84.3071 601.505 84.4153C601.586 84.4964 601.613 84.6316 601.586 84.7397L599.882 94.4471C599.747 95.096 599.396 95.6909 598.909 96.1235L593.609 100.72C593.122 101.18 592.446 101.423 591.77 101.423H590.31C589.688 101.45 589.121 101.18 588.715 100.72L587.525 99.2061C587.417 99.125 587.309 99.0709 587.174 99.0709C587.038 99.0709 586.93 99.125 586.822 99.2061L585.092 100.72C584.578 101.18 583.929 101.423 583.253 101.423H581.766C581.171 101.45 580.576 101.18 580.197 100.72L576.52 96.1235C576.168 95.6368 576.033 95.0419 576.141 94.4471L577.872 84.7397C577.926 84.4693 578.142 84.2801 578.413 84.2801H584.145C584.253 84.253 584.389 84.3071 584.47 84.4153C584.524 84.4964 584.551 84.6316 584.524 84.7397L582.55 95.9342C582.55 96.0424 582.577 96.1776 582.631 96.2587L583.226 96.9888C583.226 97.0158 583.28 97.0158 583.307 97.0158C583.334 97.0158 583.361 97.0158 583.388 96.9888L584.226 96.2587C584.307 96.1776 584.389 96.0694 584.416 95.9342L586.389 84.7397C586.444 84.4693 586.66 84.2801 586.957 84.2801H592.663C592.798 84.253 592.906 84.3071 592.987 84.4153C593.068 84.4964 593.095 84.6316 593.068 84.7397L591.094 95.9342C591.067 96.0424 591.094 96.1776 591.176 96.2587L591.743 96.9888C591.77 97.0158 591.797 97.0158 591.825 97.0158C591.852 97.0158 591.879 97.0158 591.906 96.9888L592.744 96.2587C592.852 96.1776 592.906 96.0694 592.933 95.9342L594.907 84.7397C594.961 84.4693 595.204 84.2801 595.475 84.2801H601.18ZM610.336 84.2801C610.472 84.253 610.58 84.3071 610.661 84.4153C610.742 84.4964 610.769 84.6316 610.742 84.7397L607.876 100.964C607.822 101.234 607.578 101.423 607.308 101.45H601.603C601.467 101.45 601.359 101.396 601.278 101.288C601.197 101.207 601.17 101.072 601.197 100.964L604.063 84.7397C604.117 84.4693 604.334 84.2801 604.631 84.2801H610.336ZM628.32 84.2801C628.455 84.253 628.563 84.3071 628.645 84.4153C628.726 84.4964 628.753 84.6316 628.726 84.7397L625.859 100.964C625.805 101.234 625.589 101.423 625.292 101.45H619.451C619.262 101.45 619.072 101.315 619.045 101.126L618.261 97.124C618.234 96.9888 618.045 97.0158 618.018 97.151L617.342 100.964C617.288 101.234 617.044 101.423 616.774 101.423H611.069C610.933 101.45 610.825 101.396 610.744 101.288C610.663 101.207 610.636 101.072 610.663 100.964L613.529 84.7397C613.583 84.4693 613.8 84.2801 614.097 84.2801H619.965C620.154 84.253 620.316 84.3882 620.343 84.5775L621.128 88.5794C621.155 88.7146 621.344 88.6876 621.371 88.5524L622.047 84.7397C622.101 84.4693 622.344 84.2801 622.615 84.2801H628.32ZM630.897 99.9578C630.897 99.6233 630.941 99.3417 631.029 99.1128C631.117 98.8751 631.236 98.6859 631.386 98.5451C631.535 98.3954 631.711 98.2898 631.914 98.2282C632.116 98.1578 632.336 98.1226 632.574 98.1226C632.803 98.1226 633.019 98.1578 633.221 98.2282C633.432 98.2898 633.613 98.3954 633.762 98.5451C633.912 98.6859 634.031 98.8751 634.119 99.1128C634.207 99.3417 634.251 99.6233 634.251 99.9578C634.251 100.283 634.207 100.565 634.119 100.803C634.031 101.032 633.912 101.221 633.762 101.371C633.613 101.52 633.432 101.63 633.221 101.701C633.019 101.771 632.803 101.806 632.574 101.806C632.336 101.806 632.116 101.771 631.914 101.701C631.711 101.63 631.535 101.52 631.386 101.371C631.236 101.221 631.117 101.032 631.029 100.803C630.941 100.565 630.897 100.283 630.897 99.9578Z" fill="#EDB73E"/>
<path d="M510.773 84.2801C512.098 84.2801 512.963 85.3346 512.747 86.6596L511.692 92.6083C511.422 93.9603 510.259 94.9608 508.88 94.9878H503.229C502.931 95.0149 502.715 95.2042 502.661 95.4746L501.687 100.964C501.633 101.234 501.39 101.423 501.119 101.45H495.414C495.279 101.45 495.171 101.396 495.09 101.288C495.008 101.207 494.981 101.072 495.008 100.964L497.875 84.7397C497.929 84.4693 498.145 84.2801 498.443 84.2801H510.773ZM505.635 89.0391C505.662 88.9309 505.635 88.7957 505.554 88.7146C505.473 88.6064 505.365 88.5524 505.257 88.5524H504.364C504.067 88.5794 503.85 88.7687 503.796 89.0391L503.58 90.2288C503.553 90.337 503.58 90.4722 503.661 90.5533C503.742 90.6615 503.85 90.7155 503.986 90.7155H504.878C505.148 90.6885 505.365 90.4992 505.419 90.2288L505.635 89.0391ZM521.641 84.2801C521.777 84.253 521.885 84.3071 521.966 84.4153C522.047 84.4964 522.074 84.6316 522.047 84.7397L519.181 100.964C519.127 101.234 518.883 101.423 518.613 101.45H512.908C512.772 101.45 512.664 101.396 512.583 101.288C512.502 101.207 512.475 101.072 512.502 100.964L515.368 84.7397C515.422 84.4693 515.639 84.2801 515.936 84.2801H521.641ZM539.571 84.2801C539.679 84.253 539.814 84.3071 539.895 84.4153C539.95 84.4964 540.004 84.6316 539.977 84.7397L539.382 88.0927C539.328 88.3631 539.084 88.5524 538.814 88.5524H531.243C530.972 88.5794 530.729 88.7687 530.675 89.0391L529.35 96.6643C529.323 96.7725 529.35 96.9077 529.404 96.9888C529.485 97.097 529.62 97.151 529.728 97.151H537.3C537.435 97.151 537.543 97.1781 537.624 97.2862C537.705 97.3674 537.732 97.5026 537.705 97.6107L537.11 100.964C537.056 101.234 536.813 101.423 536.543 101.423H524.212C522.887 101.423 522.022 100.369 522.238 99.0438L524.429 86.6596C524.699 85.3076 525.862 84.3071 527.241 84.2801H539.571ZM558.932 85.0642L552.793 90.9048C552.739 90.9319 552.739 90.9859 552.739 91.04L556.444 100.72C556.498 100.883 556.471 101.072 556.363 101.207C556.255 101.342 556.092 101.423 555.903 101.423H549.63C549.305 101.45 549.008 101.261 548.9 100.937L547.115 96.3128L546.872 96.5291L546.088 100.964C546.034 101.234 545.79 101.423 545.52 101.423H539.814C539.679 101.45 539.571 101.396 539.49 101.288C539.409 101.207 539.382 101.072 539.409 100.964L542.275 84.7397C542.329 84.4693 542.545 84.2801 542.843 84.2801H548.548C548.683 84.253 548.792 84.3071 548.873 84.4153C548.954 84.4964 548.981 84.6316 548.954 84.7397L548.062 89.688C548.062 89.8232 548.17 89.8503 548.278 89.7692L553.902 84.4423C553.983 84.3341 554.118 84.2801 554.281 84.2801H558.715C559.121 84.2801 559.256 84.7397 558.932 85.0642ZM560.435 99.9578C560.435 99.6233 560.479 99.3417 560.567 99.1128C560.655 98.8751 560.774 98.6859 560.924 98.5451C561.073 98.3954 561.249 98.2898 561.452 98.2282C561.654 98.1578 561.874 98.1226 562.112 98.1226C562.341 98.1226 562.556 98.1578 562.759 98.2282C562.97 98.2898 563.151 98.3954 563.3 98.5451C563.45 98.6859 563.569 98.8751 563.657 99.1128C563.745 99.3417 563.789 99.6233 563.789 99.9578C563.789 100.283 563.745 100.565 563.657 100.803C563.569 101.032 563.45 101.221 563.3 101.371C563.151 101.52 562.97 101.63 562.759 101.701C562.556 101.771 562.341 101.806 562.112 101.806C561.874 101.806 561.654 101.771 561.452 101.701C561.249 101.63 561.073 101.52 560.924 101.371C560.774 101.221 560.655 101.032 560.567 100.803C560.479 100.565 560.435 100.283 560.435 99.9578Z" fill="#FAF5EF"/>
<path d="M717.369 90.8356L658.766 88.9573C657.386 88.9131 656.244 90.0191 656.244 91.3989C656.244 92.7972 657.416 93.9101 658.812 93.8385L717.369 90.8356Z" fill="#FAF5EF"/>
</svg>
