<svg width="334" height="169" viewBox="0 0 334 169" fill="none" xmlns="http://www.w3.org/2000/svg">
<path d="M30.189 141.756L30.189 112.045C20.7931 112.067 11.0224 112.295 0.0367773 112.295V103.806H38.1785C38.1896 108.858 38.1785 117.788 38.1785 122.781H59.151V46.8807H38.1785L38.1785 66.8545H0.286419C0.266884 65.1723 0.286419 60.6127 0.286442 59.3643C12.021 59.3643 18.9073 59.3376 30.6884 59.3643V28.405C24.9194 28.4181 5.77921 28.465 0.286442 28.465V20.4154C14.5178 20.4154 23.8744 20.2235 38.1785 20.2235C38.1938 24.318 38.2639 35.1358 38.1785 39.3905C43.5746 39.3346 58.7759 39.3905 66.7655 39.3905C66.6412 51.1252 66.6221 69.3095 66.7655 80.8362C73.3603 80.7016 124.168 80.7336 150.07 80.6573C155.881 80.6402 156.536 80.6176 158.06 80.5865V89.8244C151.458 89.801 70.8856 89.8244 66.6412 89.8244C66.7066 104.942 66.6412 115.79 66.6412 130.771C57.1557 130.771 47.6674 130.836 38.1785 130.771C38.2506 135.563 38.1786 143.155 38.1785 149.825H0.0367773C-0.0456969 147.656 0.0367773 144.003 0.0367773 141.756C9.774 141.756 21.2357 141.714 30.189 141.756Z" fill="#EDB73E"/>
<path d="M158.06 80.5865V72.3473H150.07V80.6573C155.881 80.6402 156.536 80.6176 158.06 80.5865Z" fill="#EDB73E"/>
<path d="M150.07 89.8169V97.8927L158.06 97.9002V89.8244L150.07 89.8169Z" fill="#EDB73E"/>
<path d="M303.611 141.756L303.611 112.045C313.007 112.067 322.778 112.295 333.763 112.295V103.806H295.622C295.611 108.858 295.622 117.787 295.622 122.781H274.649V46.8805H295.622L295.622 66.8543H333.514C333.533 65.1721 333.514 60.6125 333.514 59.3641C321.779 59.3641 314.893 59.3374 303.112 59.3641V28.4047C308.881 28.4178 328.021 28.4648 333.514 28.4648V20.4152C319.282 20.4152 309.926 20.2233 295.622 20.2233C295.606 24.3178 295.536 35.1356 295.622 39.3903C290.226 39.3344 275.024 39.3903 267.035 39.3903C267.159 51.1249 267.178 69.3092 267.035 80.8359C260.44 80.7013 209.632 80.7333 183.73 80.657C177.919 80.6399 177.265 80.6174 175.74 80.5863V89.8241C182.342 89.8008 262.915 89.8241 267.159 89.8241C267.094 104.942 267.159 115.79 267.159 130.77C276.644 130.77 286.133 130.836 295.622 130.77C295.55 135.563 295.622 143.155 295.622 149.824H333.763C333.846 147.656 333.763 144.003 333.763 141.756C324.026 141.756 312.564 141.713 303.611 141.756Z" fill="#EDB73E"/>
<path d="M175.74 80.5863V72.3471H183.73V80.657C177.919 80.6399 177.265 80.6174 175.74 80.5863Z" fill="#EDB73E"/>
<path d="M183.73 89.8166V97.8924L175.74 97.9V89.8241L183.73 89.8166Z" fill="#EDB73E"/>
<circle cx="166.521" cy="84.3893" r="41.6953" stroke="#EDB73E" stroke-width="7.49017"/>
<circle cx="166.521" cy="84.3893" r="80.6442" stroke="#414141" stroke-width="7.49017"/>
</svg>
