<svg width="576" height="66" viewBox="0 0 576 66" fill="none" xmlns="http://www.w3.org/2000/svg">
<path d="M10.4581 0.269287H38.6368L46.4804 41.3373L71.7541 0.269287H91.7988L79.3072 65.3418H61.296L68.5586 31.7933L46.4804 65.3418H34.2793L26.4357 31.7933L19.4637 65.3418H0L14.8156 8.07799L10.4581 0.269287Z" fill="#414141"/>
<path fill-rule="evenodd" clip-rule="evenodd" d="M86.5732 65.456L121.806 7.01356L118.253 0.155518H147.565L162.368 65.456H141.643L139.275 54.7217H112.924L105.522 65.456H86.5732ZM121.806 37.7257C125.162 32.3585 132.406 21.0278 134.537 18.6424L136.906 37.7257H121.806Z" fill="#414141"/>
<path d="M160.075 0.104736L157.143 14.7688H176.792L167.701 65.5063H187.937L196.735 14.7688H217.558L221.078 0.104736H160.075Z" fill="#414141"/>
<path d="M308.997 12.93C309.565 9.24305 310.367 4.0384 310.754 1.53193C311.018 -0.185347 310.901 0.0706294 309.225 0.0706294H261.787C255.45 0.655148 251.943 2.99322 249.271 11.9197L246.069 28.5084C244.928 35.434 249.271 40.9499 256.839 40.9499H284.968C286.009 40.9499 286.146 40.8173 285.945 41.8637C285.552 43.9095 284.842 47.4166 284.633 48.8779C284.533 49.5737 284.383 49.6663 283.995 49.6663C279.655 49.6663 250.539 49.5665 244.344 49.5447C243.099 49.5403 243.185 49.4366 242.88 50.6315C241.511 56.0043 240.744 59.0167 239.375 64.3895C239.021 65.782 239.117 65.5367 240.544 65.5367C260.435 65.5367 291.477 65.5367 291.477 65.5367C297.827 65.5367 301.042 63.4909 302.538 55.465L306.322 34.1367C307.18 29.5888 303.088 25.4972 296.425 25.2499C296.425 25.2499 278.83 25.4972 267.432 25.5595C266.383 25.5653 266.418 25.6418 266.66 24.6204C267.256 22.1095 267.59 19.5326 268.185 17.0217C268.49 15.7357 268.473 15.7708 269.77 15.7516C269.77 15.7516 293.629 15.3998 306.322 15.2125C308.776 15.1763 308.624 15.3517 308.997 12.93Z" fill="#EDB73E"/>
<path fill-rule="evenodd" clip-rule="evenodd" d="M305.637 65.4558L340.87 7.01332L337.317 0.155273H366.628L381.432 65.4558H360.707L358.338 54.7215H331.987L324.586 65.4558H305.637ZM340.87 37.7254C344.225 32.3583 351.469 21.0276 353.601 18.6422L355.969 37.7254H340.87Z" fill="#EDB73E"/>
<path d="M376.206 0.32959H396.521L405.964 43.2494L421.415 0.32959H440.586L413.689 65.2815H392.516L376.206 0.32959Z" fill="#EDB73E"/>
<path d="M444.21 0H464.732L474.27 43.3552L489.878 0H509.243L482.074 65.6109H460.685L444.21 0Z" fill="#EDB73E"/>
<path d="M540.05 21.6989L533.62 0.362793H512.868L528.066 38.6509L522.513 65.2479H541.803L546.188 40.4045L576 0.362793H556.709L540.05 21.6989Z" fill="#EDB73E"/>
</svg>
