<svg width="566" height="66" viewBox="0 0 566 66" fill="none" xmlns="http://www.w3.org/2000/svg">
<path d="M10.4582 0.211914H38.637L46.4805 41.2799L71.7542 0.211914H91.7989L79.3073 65.2845H61.2961L68.5587 31.736L46.4805 65.2845H34.2794L26.4358 31.736L19.4638 65.2845H0.00012207L14.8157 8.02062L10.4582 0.211914Z" fill="#FAF5EF"/>
<path fill-rule="evenodd" clip-rule="evenodd" d="M86.5735 65.3987L121.806 6.95619L118.254 0.0981445H147.565L162.369 65.3987H141.643L139.275 54.6643H112.924L105.522 65.3987H86.5735ZM121.806 37.6683C125.162 32.3011 132.406 20.9705 134.538 18.585L136.906 37.6683H121.806Z" fill="#FAF5EF"/>
<path d="M160.076 0.0473633L157.143 14.7114H176.793L167.701 65.4489H187.937L196.736 14.7114H217.559L221.078 0.0473633H160.076Z" fill="#FAF5EF"/>
<path d="M298.873 12.8729C299.442 9.18592 300.244 3.98127 300.63 1.4748C300.895 -0.242476 300.777 0.0135005 299.102 0.0135005H251.664C245.326 0.598019 241.819 2.9361 239.147 11.8626L235.945 28.4513C234.805 35.3769 239.147 40.8928 246.715 40.8928H274.844C275.886 40.8928 276.022 40.7601 275.821 41.8066C275.429 43.8524 274.719 47.3595 274.509 48.8208C274.409 49.5166 274.26 49.6092 273.872 49.6092C269.532 49.6092 240.415 49.5094 234.22 49.4876C232.975 49.4832 233.061 49.3795 232.757 50.5744C231.388 55.9472 230.621 58.9595 229.252 64.3324C228.897 65.7249 228.994 65.4796 230.421 65.4796C250.311 65.4796 281.353 65.4796 281.353 65.4796C287.704 65.4796 290.919 63.4338 292.414 55.4079L296.198 34.0796C297.056 29.5317 292.964 25.4401 286.302 25.1928C286.302 25.1928 268.707 25.4401 257.309 25.5024C256.26 25.5082 256.294 25.5847 256.537 24.5633C257.132 22.0523 257.466 19.4755 258.062 16.9645C258.367 15.6786 258.35 15.7136 259.647 15.6945C259.647 15.6945 283.505 15.3426 296.198 15.1554C298.653 15.1192 298.5 15.2945 298.873 12.8729Z" fill="#EDB73E"/>
<path fill-rule="evenodd" clip-rule="evenodd" d="M295.513 65.3984L330.746 6.95595L327.193 0.0979004H356.504L371.308 65.3984H350.583L348.214 54.6641H321.864L314.462 65.3984H295.513ZM330.746 37.6681C334.101 32.3009 341.345 20.9702 343.477 18.5848L345.846 37.6681H330.746Z" fill="#EDB73E"/>
<path d="M366.083 0.272217H386.398L395.84 43.192L408.583 7.27222L405.083 0.272217H411.291H430.462L403.566 65.2241H382.392L366.083 0.272217Z" fill="#EDB73E"/>
<path d="M434.087 0.272217H454.402L463.845 43.192L476.587 7.27222L473.087 0.272217H479.296H498.467L471.57 65.2241H450.396L434.087 0.272217Z" fill="#EDB73E"/>
<path d="M529.273 21.6418L522.843 0.305664H502.092L517.29 38.5937L511.737 65.1908H531.027L535.411 40.3474L565.223 0.305664H545.933L529.273 21.6418Z" fill="#EDB73E"/>
</svg>
