<svg width="477" height="227" viewBox="0 0 477 227" fill="none" xmlns="http://www.w3.org/2000/svg">
<path d="M152.397 84.1856L152.397 66.5409C146.817 66.554 138.014 66.6892 131.49 66.6892V61.6479H157.141C157.148 64.6481 157.141 69.9512 157.141 72.9167H169.596V27.8413H157.141L157.141 39.7033H131.638C131.627 38.7042 131.638 35.9964 131.638 35.255C138.607 35.255 145.697 35.2392 152.693 35.255V16.869C149.267 16.8768 134.9 16.9047 131.638 16.9047V12.1242C140.09 12.1242 148.646 12.0103 157.141 12.0103C157.15 14.4419 157.192 20.8663 157.141 23.3931C160.346 23.3599 169.374 23.3931 174.118 23.3931C174.045 30.362 174.033 41.1612 174.118 48.0066C178.035 47.9267 214.209 47.9457 229.591 47.9004C233.042 47.8902 233.431 47.8768 234.336 47.8584V53.3445C230.415 53.3306 176.565 53.3445 174.045 53.3445C174.083 62.3226 174.045 68.765 174.045 77.6615C168.411 77.6615 162.777 77.7003 157.141 77.6615C157.184 80.5078 157.141 85.0163 157.141 88.9771H131.49C131.441 87.6892 131.49 85.52 131.49 84.1856C137.273 84.1856 147.079 84.1603 152.397 84.1856Z" fill="#EDB73E"/>
<path d="M234.336 47.8584V42.9653H229.591V47.9004C233.042 47.8902 233.431 47.8768 234.336 47.8584Z" fill="#EDB73E"/>
<path d="M229.591 53.34V58.1361L234.336 58.1405V53.3445L229.591 53.34Z" fill="#EDB73E"/>
<path d="M324.317 84.1856L324.317 66.5409C329.897 66.554 338.699 66.6892 345.223 66.6892V61.6479H319.572C319.565 64.6481 319.572 69.9512 319.572 72.9167H307.117V27.8413H319.572L319.572 39.7033H345.075C345.087 38.7042 345.075 35.9964 345.075 35.255C338.106 35.255 331.017 35.2392 324.02 35.255V16.869C327.446 16.8768 341.813 16.9047 345.075 16.9047V12.1242C336.623 12.1242 328.067 12.0103 319.572 12.0103C319.563 14.4419 319.521 20.8663 319.572 23.3931C316.367 23.3599 307.34 23.3931 302.595 23.3931C302.669 30.362 302.68 41.1612 302.595 48.0066C298.678 47.9267 262.505 47.9457 247.122 47.9004C243.671 47.8902 243.283 47.8768 242.377 47.8584V53.3445C246.298 53.3306 300.148 53.3445 302.669 53.3445C302.63 62.3226 302.669 68.765 302.669 77.6615C308.302 77.6615 313.937 77.7003 319.572 77.6615C319.529 80.5078 319.572 85.0163 319.572 88.9771H345.223C345.272 87.6892 345.223 85.52 345.223 84.1856C339.441 84.1856 329.634 84.1603 324.317 84.1856Z" fill="#EDB73E"/>
<path d="M242.377 47.8584V42.9653H247.122V47.9004C243.671 47.8902 243.283 47.8768 242.377 47.8584Z" fill="#EDB73E"/>
<path d="M247.122 53.34V58.1361L242.377 58.1405V53.3445L247.122 53.34Z" fill="#EDB73E"/>
<circle cx="238.967" cy="50.1168" r="24.7618" stroke="#EDB73E" stroke-width="4.44823"/>
<circle cx="238.967" cy="50.1167" r="47.8926" stroke="#414141" stroke-width="4.44823"/>
<path d="M8.6554 132.232H31.9769L38.4684 166.221L59.3857 132.232H75.9752L65.6368 186.088H50.7303L56.7409 158.322L38.4684 186.088H28.3705L21.8789 158.322L16.1087 186.088H0L12.2618 138.695L8.6554 132.232Z" fill="#414141"/>
<path fill-rule="evenodd" clip-rule="evenodd" d="M71.6503 186.182L100.81 137.814L97.8695 132.138H122.128L134.38 186.182H117.228L115.267 177.298H93.4588L87.3328 186.182H71.6503ZM100.81 163.232C103.587 158.79 109.582 149.412 111.347 147.438L113.307 163.232H100.81Z" fill="#414141"/>
<path d="M132.483 132.096L130.056 144.232H146.318L138.794 186.224H155.542L162.824 144.232H180.057L182.97 132.096H132.483Z" fill="#414141"/>
<path d="M255.734 142.711C256.205 139.659 256.869 135.352 257.188 133.277C257.407 131.856 257.31 132.068 255.924 132.068H216.662C211.417 132.552 208.515 134.487 206.303 141.874L203.654 155.604C202.71 161.336 206.303 165.901 212.567 165.901H235.847C236.709 165.901 236.822 165.791 236.656 166.657C236.331 168.35 235.743 171.253 235.57 172.462C235.487 173.038 235.364 173.115 235.043 173.115C231.451 173.115 207.353 173.032 202.226 173.014C201.195 173.01 201.266 172.924 201.015 173.913C199.882 178.36 199.247 180.853 198.114 185.3C197.82 186.452 197.9 186.249 199.081 186.249C215.543 186.249 241.234 186.249 241.234 186.249C246.49 186.249 249.151 184.556 250.389 177.914L253.52 160.262C254.23 156.498 250.844 153.112 245.33 152.907C245.33 152.907 230.768 153.112 221.334 153.163C220.466 153.168 220.495 153.231 220.695 152.386C221.188 150.308 221.465 148.175 221.957 146.097C222.21 145.033 222.196 145.062 223.269 145.046C223.269 145.046 243.015 144.755 253.52 144.6C255.552 144.57 255.425 144.715 255.734 142.711Z" fill="#EDB73E"/>
<path fill-rule="evenodd" clip-rule="evenodd" d="M252.953 186.182L282.113 137.814L279.173 132.138H303.432L315.683 186.182H298.531L296.57 177.298H274.762L268.636 186.182H252.953ZM282.113 163.232C284.89 158.79 290.885 149.412 292.65 147.438L294.61 163.232H282.113Z" fill="#EDB73E"/>
<path d="M311.359 132.282H328.172L335.987 167.804L348.775 132.282H364.641L342.381 186.038H324.857L311.359 132.282Z" fill="#EDB73E"/>
<path d="M367.641 132.009H384.625L392.519 167.891L405.437 132.009H421.464L398.978 186.311H381.276L367.641 132.009Z" fill="#EDB73E"/>
<path d="M446.96 149.968L441.638 132.31H424.464L437.042 163.998L432.446 186.01H448.412L452.04 165.449L476.713 132.31H460.748L446.96 149.968Z" fill="#EDB73E"/>
<path d="M21.2316 211.723L79.8355 209.845C81.2146 209.801 82.3566 210.907 82.3566 212.286C82.3566 213.685 81.1851 214.798 79.7887 214.726L21.2316 211.723Z" fill="#414141"/>
<path d="M117.823 205.168C119.148 205.168 120.013 206.222 119.797 207.547L118.742 213.496C118.472 214.848 117.309 215.848 115.93 215.875H110.279C109.981 215.902 109.765 216.092 109.711 216.362L108.737 221.851C108.683 222.122 108.44 222.311 108.17 222.338H102.464C102.329 222.338 102.221 222.284 102.14 222.176C102.059 222.094 102.031 221.959 102.059 221.851L104.925 205.627C104.979 205.357 105.195 205.168 105.493 205.168H117.823ZM112.685 209.927C112.712 209.818 112.685 209.683 112.604 209.602C112.523 209.494 112.415 209.44 112.307 209.44H111.414C111.117 209.467 110.901 209.656 110.846 209.927L110.63 211.116C110.603 211.224 110.63 211.36 110.711 211.441C110.792 211.549 110.901 211.603 111.036 211.603H111.928C112.198 211.576 112.415 211.387 112.469 211.116L112.685 209.927ZM135.316 205.168C136.641 205.168 137.507 206.222 137.29 207.547L136.236 213.496C135.992 214.604 135.181 215.47 134.127 215.794L134.613 221.716C134.613 222.04 134.37 222.311 134.045 222.311H128.502C128.097 222.338 127.745 222.013 127.718 221.608L127.258 216.2C127.231 216.254 127.204 216.308 127.204 216.362L126.231 221.851C126.177 222.122 125.933 222.311 125.663 222.338H119.958C119.822 222.338 119.714 222.284 119.633 222.176C119.552 222.094 119.525 221.959 119.552 221.851L122.418 205.627C122.472 205.357 122.689 205.168 122.986 205.168H135.316ZM130.179 209.927C130.206 209.818 130.179 209.683 130.098 209.602C130.017 209.494 129.908 209.44 129.8 209.44H128.908C128.61 209.467 128.394 209.656 128.34 209.927L128.124 211.116C128.097 211.224 128.124 211.36 128.205 211.441C128.286 211.549 128.394 211.603 128.529 211.603H129.422C129.692 211.576 129.908 211.387 129.962 211.116L130.179 209.927ZM154.94 205.168C155.075 205.14 155.184 205.195 155.265 205.303C155.346 205.384 155.373 205.519 155.346 205.627L154.751 208.98C154.697 209.251 154.481 209.44 154.183 209.44H146.639C146.342 209.467 146.125 209.656 146.071 209.927L145.855 211.116C145.828 211.224 145.855 211.36 145.936 211.441C146.017 211.549 146.125 211.603 146.26 211.603H153.805C153.94 211.576 154.048 211.63 154.129 211.738C154.21 211.819 154.237 211.955 154.21 212.063L153.615 215.416C153.561 215.686 153.345 215.875 153.048 215.875H145.503C145.206 215.902 144.99 216.092 144.936 216.362L144.719 217.552C144.692 217.66 144.719 217.795 144.8 217.876C144.881 217.984 144.99 218.038 145.125 218.038H152.669C152.804 218.038 152.912 218.066 152.993 218.174C153.075 218.255 153.102 218.39 153.075 218.498L152.48 221.851C152.426 222.122 152.209 222.311 151.939 222.311L137.689 222.338C137.554 222.338 137.445 222.284 137.364 222.176C137.283 222.094 137.256 221.959 137.283 221.851L140.149 205.627C140.204 205.357 140.42 205.168 140.717 205.168H154.94ZM170.911 205.168C172.236 205.168 173.101 206.222 172.885 207.547L170.694 219.931C170.424 221.283 169.261 222.284 167.882 222.338H155.552C155.417 222.338 155.309 222.284 155.228 222.176C155.146 222.094 155.119 221.959 155.146 221.851L158.013 205.627C158.067 205.357 158.283 205.168 158.581 205.168H170.911ZM165.773 209.927C165.8 209.818 165.773 209.683 165.692 209.602C165.611 209.494 165.503 209.44 165.395 209.44H164.502C164.205 209.467 163.989 209.656 163.934 209.927L162.582 217.552C162.555 217.66 162.582 217.795 162.664 217.876C162.745 217.984 162.853 218.038 162.988 218.038H163.88C164.151 218.011 164.367 217.822 164.421 217.552L165.773 209.927ZM182.202 205.168C182.337 205.14 182.445 205.195 182.526 205.303C182.608 205.384 182.635 205.519 182.608 205.627L179.741 221.851C179.687 222.122 179.444 222.311 179.174 222.338H173.468C173.333 222.338 173.225 222.284 173.144 222.176C173.063 222.094 173.035 221.959 173.063 221.851L175.929 205.627C175.983 205.357 176.199 205.168 176.497 205.168H182.202ZM200.132 205.168C200.24 205.14 200.375 205.195 200.456 205.303C200.51 205.384 200.564 205.519 200.537 205.627L199.942 208.98C199.888 209.251 199.645 209.44 199.374 209.44H191.803C191.533 209.467 191.29 209.656 191.235 209.927L189.91 217.552C189.883 217.66 189.91 217.795 189.965 217.876C190.046 217.984 190.181 218.038 190.289 218.038H197.86C197.995 218.038 198.104 218.066 198.185 218.174C198.266 218.255 198.293 218.39 198.266 218.498L197.671 221.851C197.617 222.122 197.373 222.311 197.103 222.311H184.773C183.448 222.311 182.583 221.256 182.799 219.931L184.989 207.547C185.26 206.195 186.422 205.195 187.801 205.168H200.132ZM216.41 205.168C216.518 205.14 216.653 205.195 216.707 205.303C216.788 205.384 216.815 205.519 216.788 205.627L216.22 208.98C216.166 209.251 215.923 209.44 215.652 209.44H212.327C212.056 209.467 211.84 209.656 211.786 209.927L209.677 221.851C209.623 222.122 209.379 222.311 209.109 222.338H203.403C203.268 222.338 203.16 222.284 203.079 222.176C202.998 222.094 202.971 221.959 202.998 221.851L205.107 209.927C205.134 209.818 205.107 209.683 205.026 209.602C204.945 209.494 204.836 209.44 204.701 209.44H201.402C201.267 209.44 201.159 209.413 201.078 209.305C200.997 209.223 200.97 209.088 200.997 208.98L201.592 205.627C201.646 205.357 201.889 205.168 202.16 205.168H216.41ZM218.117 220.845C218.117 220.511 218.161 220.229 218.249 220C218.337 219.763 218.456 219.573 218.606 219.433C218.756 219.283 218.932 219.177 219.134 219.116C219.336 219.045 219.557 219.01 219.794 219.01C220.023 219.01 220.239 219.045 220.441 219.116C220.652 219.177 220.833 219.283 220.982 219.433C221.132 219.573 221.251 219.763 221.339 220C221.427 220.229 221.471 220.511 221.471 220.845C221.471 221.171 221.427 221.453 221.339 221.69C221.251 221.919 221.132 222.108 220.982 222.258C220.833 222.408 220.652 222.518 220.441 222.588C220.239 222.658 220.023 222.694 219.794 222.694C219.557 222.694 219.336 222.658 219.134 222.588C218.932 222.518 218.756 222.408 218.606 222.258C218.456 222.108 218.337 221.919 218.249 221.69C218.161 221.453 218.117 221.171 218.117 220.845ZM339.292 205.168C339.428 205.14 339.536 205.195 339.617 205.303C339.698 205.384 339.725 205.519 339.698 205.627L337.995 215.335C337.859 215.983 337.508 216.578 337.021 217.011L331.721 221.608C331.235 222.067 330.559 222.311 329.883 222.311H328.422C327.801 222.338 327.233 222.067 326.827 221.608L325.637 220.094C325.529 220.012 325.421 219.958 325.286 219.958C325.151 219.958 325.042 220.012 324.934 220.094L323.204 221.608C322.69 222.067 322.041 222.311 321.365 222.311H319.878C319.283 222.338 318.688 222.067 318.31 221.608L314.632 217.011C314.281 216.524 314.145 215.929 314.254 215.335L315.984 205.627C316.038 205.357 316.255 205.168 316.525 205.168H322.257C322.366 205.14 322.501 205.195 322.582 205.303C322.636 205.384 322.663 205.519 322.636 205.627L320.662 216.822C320.662 216.93 320.689 217.065 320.743 217.146L321.338 217.876C321.338 217.903 321.392 217.903 321.419 217.903C321.446 217.903 321.473 217.903 321.5 217.876L322.338 217.146C322.42 217.065 322.501 216.957 322.528 216.822L324.502 205.627C324.556 205.357 324.772 205.168 325.07 205.168H330.775C330.91 205.14 331.018 205.195 331.099 205.303C331.181 205.384 331.208 205.519 331.181 205.627L329.207 216.822C329.18 216.93 329.207 217.065 329.288 217.146L329.856 217.876C329.883 217.903 329.91 217.903 329.937 217.903C329.964 217.903 329.991 217.903 330.018 217.876L330.856 217.146C330.964 217.065 331.018 216.957 331.045 216.822L333.019 205.627C333.073 205.357 333.317 205.168 333.587 205.168H339.292ZM348.449 205.168C348.584 205.14 348.692 205.195 348.773 205.303C348.854 205.384 348.881 205.519 348.854 205.627L345.988 221.851C345.934 222.122 345.691 222.311 345.42 222.338H339.715C339.58 222.338 339.471 222.284 339.39 222.176C339.309 222.094 339.282 221.959 339.309 221.851L342.175 205.627C342.229 205.357 342.446 205.168 342.743 205.168H348.449ZM366.432 205.168C366.567 205.14 366.676 205.195 366.757 205.303C366.838 205.384 366.865 205.519 366.838 205.627L363.972 221.851C363.918 222.122 363.701 222.311 363.404 222.338H357.563C357.374 222.338 357.185 222.203 357.158 222.013L356.373 218.011C356.346 217.876 356.157 217.903 356.13 218.038L355.454 221.851C355.4 222.122 355.157 222.311 354.886 222.311H349.181C349.046 222.338 348.937 222.284 348.856 222.176C348.775 222.094 348.748 221.959 348.775 221.851L351.641 205.627C351.696 205.357 351.912 205.168 352.209 205.168H358.077C358.266 205.14 358.428 205.276 358.456 205.465L359.24 209.467C359.267 209.602 359.456 209.575 359.483 209.44L360.159 205.627C360.213 205.357 360.456 205.168 360.727 205.168H366.432ZM369.009 220.845C369.009 220.511 369.053 220.229 369.141 220C369.229 219.763 369.348 219.573 369.498 219.433C369.648 219.283 369.824 219.177 370.026 219.116C370.228 219.045 370.449 219.01 370.686 219.01C370.915 219.01 371.131 219.045 371.333 219.116C371.544 219.177 371.725 219.283 371.874 219.433C372.024 219.573 372.143 219.763 372.231 220C372.319 220.229 372.363 220.511 372.363 220.845C372.363 221.171 372.319 221.453 372.231 221.69C372.143 221.919 372.024 222.108 371.874 222.258C371.725 222.408 371.544 222.518 371.333 222.588C371.131 222.658 370.915 222.694 370.686 222.694C370.449 222.694 370.228 222.658 370.026 222.588C369.824 222.518 369.648 222.408 369.498 222.258C369.348 222.108 369.229 221.919 369.141 221.69C369.053 221.453 369.009 221.171 369.009 220.845Z" fill="#EDB73E"/>
<path d="M248.885 205.168C250.21 205.168 251.075 206.222 250.859 207.547L249.804 213.496C249.534 214.848 248.371 215.848 246.992 215.875H241.341C241.043 215.902 240.827 216.092 240.773 216.362L239.799 221.851C239.745 222.122 239.502 222.311 239.232 222.338H233.526C233.391 222.338 233.283 222.284 233.202 222.176C233.121 222.094 233.094 221.959 233.121 221.851L235.987 205.627C236.041 205.357 236.257 205.168 236.555 205.168H248.885ZM243.747 209.927C243.774 209.818 243.747 209.683 243.666 209.602C243.585 209.494 243.477 209.44 243.369 209.44H242.476C242.179 209.467 241.963 209.656 241.909 209.927L241.692 211.116C241.665 211.224 241.692 211.36 241.773 211.441C241.855 211.549 241.963 211.603 242.098 211.603H242.99C243.261 211.576 243.477 211.387 243.531 211.116L243.747 209.927ZM259.754 205.168C259.889 205.14 259.997 205.195 260.078 205.303C260.159 205.384 260.186 205.519 260.159 205.627L257.293 221.851C257.239 222.122 256.996 222.311 256.725 222.338H251.02C250.885 222.338 250.776 222.284 250.695 222.176C250.614 222.094 250.587 221.959 250.614 221.851L253.48 205.627C253.534 205.357 253.751 205.168 254.048 205.168H259.754ZM277.683 205.168C277.791 205.14 277.927 205.195 278.008 205.303C278.062 205.384 278.116 205.519 278.089 205.627L277.494 208.98C277.44 209.251 277.196 209.44 276.926 209.44H269.355C269.084 209.467 268.841 209.656 268.787 209.927L267.462 217.552C267.435 217.66 267.462 217.795 267.516 217.876C267.597 217.984 267.733 218.038 267.841 218.038H275.412C275.547 218.038 275.655 218.066 275.736 218.174C275.817 218.255 275.844 218.39 275.817 218.498L275.223 221.851C275.168 222.122 274.925 222.311 274.655 222.311H262.325C261 222.311 260.134 221.256 260.351 219.931L262.541 207.547C262.811 206.195 263.974 205.195 265.353 205.168H277.683ZM297.044 205.952L290.906 211.792C290.852 211.819 290.852 211.873 290.852 211.927L294.556 221.608C294.61 221.77 294.583 221.959 294.475 222.094C294.367 222.23 294.205 222.311 294.015 222.311H287.742C287.418 222.338 287.12 222.149 287.012 221.824L285.227 217.2L284.984 217.417L284.2 221.851C284.146 222.122 283.902 222.311 283.632 222.311H277.927C277.791 222.338 277.683 222.284 277.602 222.176C277.521 222.094 277.494 221.959 277.521 221.851L280.387 205.627C280.441 205.357 280.658 205.168 280.955 205.168H286.66C286.796 205.14 286.904 205.195 286.985 205.303C287.066 205.384 287.093 205.519 287.066 205.627L286.174 210.575C286.174 210.711 286.282 210.738 286.39 210.657L292.014 205.33C292.095 205.222 292.231 205.168 292.393 205.168H296.827C297.233 205.168 297.368 205.627 297.044 205.952ZM298.547 220.845C298.547 220.511 298.591 220.229 298.679 220C298.767 219.763 298.886 219.573 299.036 219.433C299.185 219.283 299.361 219.177 299.564 219.116C299.766 219.045 299.986 219.01 300.224 219.01C300.453 219.01 300.669 219.045 300.871 219.116C301.082 219.177 301.263 219.283 301.412 219.433C301.562 219.573 301.681 219.763 301.769 220C301.857 220.229 301.901 220.511 301.901 220.845C301.901 221.171 301.857 221.453 301.769 221.69C301.681 221.919 301.562 222.108 301.412 222.258C301.263 222.408 301.082 222.518 300.871 222.588C300.669 222.658 300.453 222.694 300.224 222.694C299.986 222.694 299.766 222.658 299.564 222.588C299.361 222.518 299.185 222.408 299.036 222.258C298.886 222.108 298.767 221.919 298.679 221.69C298.591 221.453 298.547 221.171 298.547 220.845Z" fill="#414141"/>
<path d="M455.482 211.723L396.878 209.845C395.499 209.801 394.357 210.907 394.357 212.286C394.357 213.685 395.528 214.798 396.925 214.726L455.482 211.723Z" fill="#414141"/>
</svg>
