<svg width="472" height="193" viewBox="0 0 472 193" fill="none" xmlns="http://www.w3.org/2000/svg">
<path d="M154.492 84.1856L154.492 66.5409C148.912 66.554 143.109 66.6892 136.585 66.6892V61.6479H159.237C159.243 64.6481 159.237 69.9512 159.237 72.9167H171.692V27.8413H159.237L159.237 39.7033H136.734C136.722 38.7042 136.734 35.9964 136.734 35.255C143.702 35.255 147.792 35.2392 154.789 35.255V16.869C151.363 16.8768 139.996 16.9047 136.734 16.9047V12.1242C145.185 12.1242 150.742 12.0103 159.237 12.0103C159.246 14.4419 159.287 20.8663 159.237 23.3931C162.441 23.3599 171.469 23.3931 176.214 23.3931C176.14 30.362 176.129 41.1612 176.214 48.0066C180.13 47.9267 210.304 47.9457 225.687 47.9004C229.138 47.8902 229.526 47.8768 230.431 47.8584V53.3445C226.511 53.3306 178.661 53.3445 176.14 53.3445C176.179 62.3226 176.14 68.765 176.14 77.6615C170.507 77.6615 164.872 77.7003 159.237 77.6615C159.28 80.5078 159.237 85.0163 159.237 88.9771H136.585C136.536 87.6892 136.585 85.52 136.585 84.1856C142.368 84.1856 149.175 84.1603 154.492 84.1856Z" fill="#EDB73E"/>
<path d="M230.431 47.8584V42.9653H225.687V47.9004C229.138 47.8902 229.526 47.8768 230.431 47.8584Z" fill="#EDB73E"/>
<path d="M225.687 53.34V58.1361L230.431 58.1405V53.3445L225.687 53.34Z" fill="#EDB73E"/>
<path d="M316.871 84.1856L316.871 66.5409C322.451 66.554 328.253 66.6892 334.777 66.6892V61.6479H312.126C312.119 64.6481 312.126 69.9512 312.126 72.9167H299.671V27.8413H312.126L312.126 39.7033H334.629C334.641 38.7042 334.629 35.9964 334.629 35.255C327.66 35.255 323.571 35.2392 316.574 35.255V16.869C320 16.8768 331.367 16.9047 334.629 16.9047V12.1242C326.178 12.1242 320.621 12.0103 312.126 12.0103C312.117 14.4419 312.075 20.8663 312.126 23.3931C308.921 23.3599 299.894 23.3931 295.149 23.3931C295.223 30.362 295.234 41.1612 295.149 48.0066C291.232 47.9267 261.059 47.9457 245.676 47.9004C242.225 47.8902 241.837 47.8768 240.931 47.8584V53.3445C244.852 53.3306 292.702 53.3445 295.223 53.3445C295.184 62.3226 295.223 68.765 295.223 77.6615C300.856 77.6615 306.491 77.7003 312.126 77.6615C312.083 80.5078 312.126 85.0163 312.126 88.9771H334.777C334.826 87.6892 334.777 85.52 334.777 84.1856C328.995 84.1856 322.188 84.1603 316.871 84.1856Z" fill="#EDB73E"/>
<path d="M240.931 47.8584V42.9653H245.676V47.9004C242.225 47.8902 241.837 47.8768 240.931 47.8584Z" fill="#EDB73E"/>
<path d="M245.676 53.34V58.1361L240.931 58.1405V53.3445L245.676 53.34Z" fill="#EDB73E"/>
<circle cx="235.456" cy="50.1168" r="24.7618" stroke="#EDB73E" stroke-width="4.44823"/>
<circle cx="235.456" cy="50.1167" r="47.8926" stroke="#F5F0E5" stroke-width="4.44823"/>
<path d="M10.1104 138.232H33.4318L39.9234 172.221L60.8406 138.232H77.4301L67.0917 192.088H52.1852L58.1959 164.322L39.9234 192.088H29.8254L23.3339 164.322L17.5636 192.088H1.45496L13.7168 144.695L10.1104 138.232Z" fill="#FAF5EF"/>
<path fill-rule="evenodd" clip-rule="evenodd" d="M73.1052 192.182L102.265 143.814L99.3245 138.138H123.583L135.835 192.182H118.683L116.722 183.298H94.9138L88.7878 192.182H73.1052ZM102.265 169.232C105.042 164.79 111.037 155.412 112.802 153.438L114.762 169.232H102.265Z" fill="#FAF5EF"/>
<path d="M133.938 138.096L131.511 150.232H147.773L140.249 192.224H156.997L164.279 150.232H181.512L184.425 138.096H133.938Z" fill="#FAF5EF"/>
<path d="M248.929 148.711C249.4 145.659 250.064 141.352 250.383 139.277C250.602 137.856 250.505 138.068 249.118 138.068H209.857C204.612 138.552 201.71 140.487 199.498 147.875L196.848 161.604C195.904 167.336 199.498 171.901 205.762 171.901H229.042C229.904 171.901 230.017 171.791 229.851 172.657C229.526 174.35 228.938 177.253 228.765 178.462C228.682 179.038 228.558 179.115 228.237 179.115C224.646 179.115 200.548 179.032 195.421 179.014C194.39 179.01 194.461 178.925 194.209 179.913C193.077 184.36 192.441 186.853 191.309 191.3C191.015 192.452 191.095 192.249 192.276 192.249C208.738 192.249 234.429 192.249 234.429 192.249C239.685 192.249 242.346 190.556 243.584 183.914L246.715 166.262C247.425 162.498 244.039 159.112 238.525 158.907C238.525 158.907 223.963 159.112 214.529 159.163C213.661 159.168 213.69 159.231 213.89 158.386C214.383 156.308 214.659 154.175 215.152 152.097C215.405 151.033 215.391 151.062 216.464 151.046C216.464 151.046 236.21 150.755 246.715 150.6C248.747 150.57 248.62 150.715 248.929 148.711Z" fill="#EDB73E"/>
<path fill-rule="evenodd" clip-rule="evenodd" d="M246.148 192.182L275.308 143.814L272.367 138.138H296.626L308.878 192.182H291.725L289.765 183.298H267.957L261.831 192.182H246.148ZM275.308 169.232C278.085 164.79 284.08 155.412 285.845 153.438L287.805 169.232H275.308Z" fill="#EDB73E"/>
<path d="M304.554 138.282H321.367L329.182 173.804L341.97 138.282H357.836L335.576 192.038H318.052L304.554 138.282Z" fill="#EDB73E"/>
<path d="M360.836 138.009H377.82L385.714 173.891L398.631 138.009H414.659L392.173 192.311H374.471L360.836 138.009Z" fill="#EDB73E"/>
<path d="M440.155 155.968L434.833 138.31H417.659L430.237 169.998L425.641 192.01H441.606L445.235 171.449L469.908 138.31H453.943L440.155 155.968Z" fill="#EDB73E"/>
</svg>
