<svg width="334" height="169" viewBox="0 0 334 169" fill="none" xmlns="http://www.w3.org/2000/svg">
<path d="M30.1888 141.756L30.1889 112.045C20.7929 112.067 11.0222 112.295 0.0366551 112.295V103.806H38.1783C38.1894 108.858 38.1783 117.788 38.1783 122.781H59.1508V46.8808H38.1783L38.1783 66.8546H0.286297C0.266761 65.1723 0.286296 60.6128 0.28632 59.3644C12.0208 59.3644 18.9072 59.3377 30.6882 59.3644V28.4051C24.9193 28.4182 5.77908 28.4651 0.28632 28.4651V20.4156C14.5176 20.4156 23.8742 20.2236 38.1784 20.2236C38.1936 24.3182 38.2637 35.1359 38.1783 39.3906C43.5744 39.3347 58.7757 39.3906 66.7652 39.3906C66.641 51.1252 66.6218 69.3095 66.7652 80.8362C73.3601 80.7016 124.168 80.7336 150.07 80.6573C155.881 80.6402 156.535 80.6176 158.059 80.5865V89.8244C151.458 89.801 70.8854 89.8244 66.641 89.8244C66.7064 104.942 66.641 115.79 66.641 130.771C57.1555 130.771 47.6672 130.836 38.1783 130.771C38.2504 135.563 38.1784 143.155 38.1783 149.824H0.0366551C-0.0458189 147.656 0.0366551 144.003 0.0366551 141.756C9.77386 141.756 21.2356 141.714 30.1888 141.756Z" fill="#EFB113"/>
<path d="M158.059 80.5865V72.3473H150.07V80.6573C155.881 80.6402 156.535 80.6176 158.059 80.5865Z" fill="#EFB113"/>
<path d="M150.07 89.8168V97.8927L158.059 97.9002V89.8244L150.07 89.8168Z" fill="#EFB113"/>
<path d="M303.61 141.756L303.61 112.045C313.006 112.067 322.777 112.295 333.763 112.295V103.806H295.621C295.61 108.858 295.621 117.788 295.621 122.781H274.649V46.8808H295.621L295.621 66.8546H333.513C333.533 65.1723 333.513 60.6128 333.513 59.3644C321.778 59.3644 314.892 59.3377 303.111 59.3644V28.4051C308.88 28.4182 328.02 28.4651 333.513 28.4651V20.4156C319.282 20.4156 309.925 20.2236 295.621 20.2236C295.606 24.3182 295.536 35.1359 295.621 39.3906C290.225 39.3347 275.024 39.3906 267.034 39.3906C267.158 51.1252 267.178 69.3095 267.034 80.8362C260.439 80.7016 209.631 80.7336 183.729 80.6573C177.918 80.6402 177.264 80.6176 175.74 80.5865V89.8244C182.342 89.801 262.914 89.8244 267.158 89.8244C267.093 104.942 267.158 115.79 267.158 130.771C276.644 130.771 286.132 130.836 295.621 130.771C295.549 135.563 295.621 143.155 295.621 149.824H333.763C333.845 147.656 333.763 144.003 333.763 141.756C324.025 141.756 312.564 141.714 303.61 141.756Z" fill="#EFB113"/>
<path d="M175.74 80.5865V72.3473H183.729V80.6573C177.918 80.6402 177.264 80.6176 175.74 80.5865Z" fill="#EFB113"/>
<path d="M183.729 89.8168V97.8927L175.74 97.9002V89.8244L183.729 89.8168Z" fill="#EFB113"/>
<circle cx="166.521" cy="84.3893" r="41.6952" stroke="#EFB113" stroke-width="7.49016"/>
<circle cx="166.521" cy="84.3892" r="80.644" stroke="#F5F0E5" stroke-width="7.49016"/>
</svg>
