<svg width="803" height="101" viewBox="0 0 803 101" fill="none" xmlns="http://www.w3.org/2000/svg">
<path d="M17.9284 84.1856L17.9285 66.5409C12.3484 66.554 6.54584 66.6892 0.0217686 66.6892V61.6479H22.6732C22.6798 64.6481 22.6732 69.9512 22.6732 72.9167H35.1283V27.8413H22.6732L22.6732 39.7033H0.170025C0.158423 38.7042 0.170025 35.9964 0.170039 35.255C7.13889 35.255 11.2285 35.2392 18.225 35.255V16.869C14.799 16.8768 3.43206 16.9047 0.170039 16.9047V12.1242C8.62168 12.1242 14.1783 12.0103 22.6732 12.0103C22.6823 14.4419 22.7239 20.8663 22.6732 23.3931C25.8778 23.3599 34.9055 23.3931 39.6503 23.3931C39.5765 30.362 39.5651 41.1612 39.6503 48.0066C43.5668 47.9267 73.7405 47.9457 89.123 47.9004C92.5741 47.8902 92.9625 47.8768 93.8678 47.8584V53.3445C89.9471 53.3306 42.0972 53.3445 39.5765 53.3445C39.6153 62.3226 39.5765 68.765 39.5765 77.6615C33.9433 77.6615 28.3085 77.7003 22.6732 77.6615C22.716 80.5078 22.6732 85.0163 22.6732 88.9771H0.0217686C-0.0272108 87.6892 0.0217686 85.52 0.0217686 84.1856C5.80447 84.1856 12.6113 84.1603 17.9284 84.1856Z" fill="#EFB113"/>
<path d="M93.8678 47.8584V42.9653H89.123V47.9004C92.5741 47.8902 92.9625 47.8768 93.8678 47.8584Z" fill="#EFB113"/>
<path d="M89.123 53.34V58.1361L93.8678 58.1405V53.3445L89.123 53.34Z" fill="#EFB113"/>
<path d="M180.307 84.1856L180.307 66.5409C185.887 66.554 191.69 66.6892 198.214 66.6892V61.6479H175.563C175.556 64.6481 175.563 69.9512 175.563 72.9167H163.108V27.8413H175.563L175.563 39.7033H198.066C198.077 38.7042 198.066 35.9964 198.066 35.255C191.097 35.255 187.007 35.2392 180.011 35.255V16.869C183.437 16.8768 194.804 16.9047 198.066 16.9047V12.1242C189.614 12.1242 184.058 12.0103 175.563 12.0103C175.554 14.4419 175.512 20.8663 175.563 23.3931C172.358 23.3599 163.33 23.3931 158.586 23.3931C158.659 30.362 158.671 41.1612 158.586 48.0066C154.669 47.9267 124.495 47.9457 109.113 47.9004C105.662 47.8902 105.273 47.8768 104.368 47.8584V53.3445C108.289 53.3306 156.139 53.3445 158.659 53.3445C158.62 62.3226 158.659 68.765 158.659 77.6615C164.293 77.6615 169.927 77.7003 175.563 77.6615C175.52 80.5078 175.563 85.0163 175.563 88.9771H198.214C198.263 87.6892 198.214 85.52 198.214 84.1856C192.431 84.1856 185.625 84.1603 180.307 84.1856Z" fill="#EFB113"/>
<path d="M104.368 47.8584V42.9653H109.113V47.9004C105.662 47.8902 105.273 47.8768 104.368 47.8584Z" fill="#EFB113"/>
<path d="M109.113 53.34V58.1361L104.368 58.1405V53.3445L109.113 53.34Z" fill="#EFB113"/>
<circle cx="98.8927" cy="50.1168" r="24.7618" stroke="#EFB113" stroke-width="4.44823"/>
<circle cx="98.8926" cy="50.1167" r="47.8926" stroke="#414141" stroke-width="4.44823"/>
<path d="M236.847 17.5801H265.026L272.87 58.6481L298.143 17.5801H318.188L305.696 82.6526H287.685L294.948 49.1041L272.87 82.6526H260.668L252.825 49.1041L245.853 82.6526H226.389L241.205 25.3888L236.847 17.5801Z" fill="#414141"/>
<path fill-rule="evenodd" clip-rule="evenodd" d="M312.962 82.7668L348.195 24.3244L344.642 17.4663H373.954L388.758 82.7668H368.032L365.664 72.0325H339.313L331.911 82.7668H312.962ZM348.195 55.0365C351.551 49.6693 358.795 38.3386 360.927 35.9532L363.295 55.0365H348.195Z" fill="#414141"/>
<path d="M386.465 17.4155L383.532 32.0795H403.182L394.09 82.817H414.326L423.125 32.0795H443.947L447.467 17.4155H386.465Z" fill="#414141"/>
<path d="M535.386 30.2411C535.954 26.5541 536.757 21.3494 537.143 18.843C537.408 17.1257 537.29 17.3817 535.615 17.3817H488.176C481.839 17.9662 478.332 20.3043 475.66 29.2307L472.458 45.8194C471.317 52.7451 475.66 58.261 483.228 58.261H511.357C512.399 58.261 512.535 58.1283 512.334 59.1748C511.941 61.2206 511.231 64.7277 511.022 66.189C510.922 66.8847 510.772 66.9773 510.385 66.9773C506.045 66.9773 476.928 66.8776 470.733 66.8557C469.488 66.8513 469.574 66.7476 469.269 67.9425C467.901 73.3154 467.133 76.3277 465.765 81.7005C465.41 83.093 465.506 82.8478 466.934 82.8478C486.824 82.8478 517.866 82.8478 517.866 82.8478C524.216 82.8478 527.431 80.802 528.927 72.7761L532.711 51.4477C533.569 46.8999 529.477 42.8082 522.814 42.5609C522.814 42.5609 505.22 42.8082 493.821 42.8706C492.772 42.8763 492.807 42.9528 493.049 41.9314C493.645 39.4205 493.979 36.8437 494.574 34.3327C494.879 33.0468 494.862 33.0818 496.159 33.0627C496.159 33.0627 520.018 32.7108 532.711 32.5236C535.165 32.4874 535.013 32.6627 535.386 30.2411Z" fill="#EDB73E"/>
<path fill-rule="evenodd" clip-rule="evenodd" d="M532.026 82.7668L567.259 24.3244L563.706 17.4663H593.017L607.821 82.7668H587.096L584.727 72.0325H558.377L550.975 82.7668H532.026ZM567.259 55.0365C570.614 49.6693 577.858 38.3386 579.99 35.9532L582.359 55.0365H567.259Z" fill="#EDB73E"/>
<path d="M602.595 17.6406H622.911L632.353 60.5604L647.804 17.6406H666.975L640.078 82.5925H618.905L602.595 17.6406Z" fill="#EDB73E"/>
<path d="M670.6 17.311H691.121L700.659 60.6663L716.267 17.311H735.632L708.463 82.922H687.075L670.6 17.311Z" fill="#EDB73E"/>
<path d="M766.439 39.0099L760.009 17.6738H739.257L754.456 55.9619L748.902 82.559H768.193L772.577 57.7156L802.389 17.6738H783.099L766.439 39.0099Z" fill="#EDB73E"/>
</svg>
