<svg width="477" height="231" viewBox="0 0 477 231" fill="none" xmlns="http://www.w3.org/2000/svg">
<path d="M152.397 84.1856L152.397 66.5409C146.817 66.554 138.014 66.6892 131.49 66.6892V61.6479H157.141C157.148 64.6481 157.141 69.9512 157.141 72.9167H169.596V27.8413H157.141L157.141 39.7033H131.638C131.627 38.7042 131.638 35.9964 131.638 35.255C138.607 35.255 145.697 35.2392 152.693 35.255V16.869C149.267 16.8768 134.9 16.9047 131.638 16.9047V12.1242C140.09 12.1242 148.646 12.0103 157.141 12.0103C157.15 14.4419 157.192 20.8663 157.141 23.3931C160.346 23.3599 169.374 23.3931 174.118 23.3931C174.045 30.362 174.033 41.1612 174.118 48.0066C178.035 47.9267 214.209 47.9457 229.591 47.9004C233.042 47.8902 233.431 47.8768 234.336 47.8584V53.3445C230.415 53.3306 176.565 53.3445 174.045 53.3445C174.083 62.3226 174.045 68.765 174.045 77.6615C168.411 77.6615 162.777 77.7003 157.141 77.6615C157.184 80.5078 157.141 85.0163 157.141 88.9771H131.49C131.441 87.6892 131.49 85.52 131.49 84.1856C137.273 84.1856 147.079 84.1603 152.397 84.1856Z" fill="#EDB73E"/>
<path d="M234.336 47.8584V42.9653H229.591V47.9004C233.042 47.8902 233.431 47.8768 234.336 47.8584Z" fill="#EDB73E"/>
<path d="M229.591 53.34V58.1361L234.336 58.1405V53.3445L229.591 53.34Z" fill="#EDB73E"/>
<path d="M324.317 84.1856L324.317 66.5409C329.897 66.554 338.699 66.6892 345.223 66.6892V61.6479H319.572C319.565 64.6481 319.572 69.9512 319.572 72.9167H307.117V27.8413H319.572L319.572 39.7033H345.075C345.087 38.7042 345.075 35.9964 345.075 35.255C338.106 35.255 331.017 35.2392 324.02 35.255V16.869C327.446 16.8768 341.813 16.9047 345.075 16.9047V12.1242C336.623 12.1242 328.067 12.0103 319.572 12.0103C319.563 14.4419 319.521 20.8663 319.572 23.3931C316.367 23.3599 307.34 23.3931 302.595 23.3931C302.669 30.362 302.68 41.1612 302.595 48.0066C298.678 47.9267 262.505 47.9457 247.122 47.9004C243.671 47.8902 243.283 47.8768 242.377 47.8584V53.3445C246.298 53.3306 300.148 53.3445 302.669 53.3445C302.63 62.3226 302.669 68.765 302.669 77.6615C308.302 77.6615 313.937 77.7003 319.572 77.6615C319.529 80.5078 319.572 85.0163 319.572 88.9771H345.223C345.272 87.6892 345.223 85.52 345.223 84.1856C339.441 84.1856 329.634 84.1603 324.317 84.1856Z" fill="#EDB73E"/>
<path d="M242.377 47.8584V42.9653H247.122V47.9004C243.671 47.8902 243.283 47.8768 242.377 47.8584Z" fill="#EDB73E"/>
<path d="M247.122 53.34V58.1361L242.377 58.1405V53.3445L247.122 53.34Z" fill="#EDB73E"/>
<circle cx="238.967" cy="50.1168" r="24.7618" stroke="#EDB73E" stroke-width="4.44823"/>
<circle cx="238.967" cy="50.1167" r="47.8926" stroke="#FAF5EF" stroke-width="4.44823"/>
<path d="M8.6554 132.232H31.9769L38.4684 166.221L59.3857 132.232H75.9752L65.6368 186.088H50.7303L56.7409 158.322L38.4684 186.088H28.3705L21.8789 158.322L16.1087 186.088H0L12.2618 138.695L8.6554 132.232Z" fill="#FAF5EF"/>
<path fill-rule="evenodd" clip-rule="evenodd" d="M71.6503 186.182L100.81 137.814L97.8695 132.138H122.128L134.38 186.182H117.228L115.267 177.298H93.4588L87.3328 186.182H71.6503ZM100.81 163.232C103.587 158.79 109.582 149.412 111.347 147.438L113.307 163.232H100.81Z" fill="#FAF5EF"/>
<path d="M132.483 132.096L130.056 144.232H146.318L138.794 186.224H155.542L162.824 144.232H180.057L182.97 132.096H132.483Z" fill="#FAF5EF"/>
<path d="M255.734 142.711C256.205 139.659 256.869 135.352 257.188 133.277C257.407 131.856 257.31 132.068 255.924 132.068H216.662C211.417 132.552 208.515 134.487 206.303 141.874L203.654 155.604C202.71 161.336 206.303 165.901 212.567 165.901H235.847C236.709 165.901 236.822 165.791 236.656 166.657C236.331 168.35 235.743 171.253 235.57 172.462C235.487 173.038 235.364 173.115 235.043 173.115C231.451 173.115 207.353 173.032 202.226 173.014C201.195 173.01 201.266 172.924 201.014 173.913C199.882 178.36 199.247 180.853 198.114 185.3C197.82 186.452 197.9 186.249 199.081 186.249C215.543 186.249 241.234 186.249 241.234 186.249C246.49 186.249 249.151 184.556 250.389 177.914L253.52 160.262C254.23 156.498 250.844 153.112 245.33 152.907C245.33 152.907 230.768 153.112 221.334 153.163C220.466 153.168 220.495 153.231 220.695 152.386C221.188 150.308 221.465 148.175 221.957 146.097C222.21 145.033 222.196 145.062 223.269 145.046C223.269 145.046 243.015 144.755 253.52 144.6C255.552 144.57 255.425 144.715 255.734 142.711Z" fill="#EDB73E"/>
<path fill-rule="evenodd" clip-rule="evenodd" d="M252.953 186.182L282.113 137.814L279.173 132.138H303.431L315.683 186.182H298.531L296.57 177.298H274.762L268.636 186.182H252.953ZM282.113 163.232C284.89 158.79 290.885 149.412 292.65 147.438L294.61 163.232H282.113Z" fill="#EDB73E"/>
<path d="M311.359 132.282H328.172L335.987 167.804L348.775 132.282H364.641L342.381 186.038H324.857L311.359 132.282Z" fill="#EDB73E"/>
<path d="M367.641 132.009H384.625L392.519 167.891L405.437 132.009H421.464L398.978 186.311H381.276L367.641 132.009Z" fill="#EDB73E"/>
<path d="M446.96 149.968L441.638 132.31H424.464L437.042 163.998L432.446 186.01H448.411L452.04 165.449L476.713 132.31H460.748L446.96 149.968Z" fill="#EDB73E"/>
<path d="M21.2316 215.723L79.8355 213.845C81.2146 213.801 82.3566 214.907 82.3566 216.286C82.3566 217.685 81.1851 218.798 79.7886 218.726L21.2316 215.723Z" fill="#FAF5EF"/>
<path d="M117.823 209.168C119.148 209.168 120.013 210.222 119.797 211.547L118.742 217.496C118.472 218.848 117.309 219.848 115.93 219.875H110.279C109.981 219.902 109.765 220.092 109.711 220.362L108.737 225.851C108.683 226.122 108.44 226.311 108.17 226.338H102.464C102.329 226.338 102.221 226.284 102.14 226.176C102.059 226.094 102.031 225.959 102.059 225.851L104.925 209.627C104.979 209.357 105.195 209.168 105.493 209.168H117.823ZM112.685 213.927C112.712 213.818 112.685 213.683 112.604 213.602C112.523 213.494 112.415 213.44 112.307 213.44H111.414C111.117 213.467 110.901 213.656 110.846 213.927L110.63 215.116C110.603 215.224 110.63 215.36 110.711 215.441C110.792 215.549 110.901 215.603 111.036 215.603H111.928C112.198 215.576 112.415 215.387 112.469 215.116L112.685 213.927ZM135.316 209.168C136.641 209.168 137.507 210.222 137.29 211.547L136.236 217.496C135.992 218.604 135.181 219.47 134.127 219.794L134.613 225.716C134.613 226.04 134.37 226.311 134.045 226.311H128.502C128.097 226.338 127.745 226.013 127.718 225.608L127.258 220.2C127.231 220.254 127.204 220.308 127.204 220.362L126.231 225.851C126.177 226.122 125.933 226.311 125.663 226.338H119.958C119.822 226.338 119.714 226.284 119.633 226.176C119.552 226.094 119.525 225.959 119.552 225.851L122.418 209.627C122.472 209.357 122.689 209.168 122.986 209.168H135.316ZM130.179 213.927C130.206 213.818 130.179 213.683 130.098 213.602C130.016 213.494 129.908 213.44 129.8 213.44H128.908C128.61 213.467 128.394 213.656 128.34 213.927L128.124 215.116C128.097 215.224 128.124 215.36 128.205 215.441C128.286 215.549 128.394 215.603 128.529 215.603H129.422C129.692 215.576 129.908 215.387 129.962 215.116L130.179 213.927ZM154.94 209.168C155.075 209.14 155.184 209.195 155.265 209.303C155.346 209.384 155.373 209.519 155.346 209.627L154.751 212.98C154.697 213.251 154.481 213.44 154.183 213.44H146.639C146.342 213.467 146.125 213.656 146.071 213.927L145.855 215.116C145.828 215.224 145.855 215.36 145.936 215.441C146.017 215.549 146.125 215.603 146.26 215.603H153.805C153.94 215.576 154.048 215.63 154.129 215.738C154.21 215.819 154.237 215.955 154.21 216.063L153.615 219.416C153.561 219.686 153.345 219.875 153.047 219.875H145.503C145.206 219.902 144.99 220.092 144.936 220.362L144.719 221.552C144.692 221.66 144.719 221.795 144.8 221.876C144.881 221.984 144.99 222.038 145.125 222.038H152.669C152.804 222.038 152.912 222.066 152.993 222.174C153.075 222.255 153.102 222.39 153.075 222.498L152.48 225.851C152.426 226.122 152.209 226.311 151.939 226.311L137.689 226.338C137.554 226.338 137.445 226.284 137.364 226.176C137.283 226.094 137.256 225.959 137.283 225.851L140.149 209.627C140.204 209.357 140.42 209.168 140.717 209.168H154.94ZM170.911 209.168C172.236 209.168 173.101 210.222 172.885 211.547L170.694 223.931C170.424 225.283 169.261 226.284 167.882 226.338H155.552C155.417 226.338 155.309 226.284 155.228 226.176C155.146 226.094 155.119 225.959 155.146 225.851L158.013 209.627C158.067 209.357 158.283 209.168 158.581 209.168H170.911ZM165.773 213.927C165.8 213.818 165.773 213.683 165.692 213.602C165.611 213.494 165.503 213.44 165.395 213.44H164.502C164.205 213.467 163.988 213.656 163.934 213.927L162.582 221.552C162.555 221.66 162.582 221.795 162.664 221.876C162.745 221.984 162.853 222.038 162.988 222.038H163.88C164.151 222.011 164.367 221.822 164.421 221.552L165.773 213.927ZM182.202 209.168C182.337 209.14 182.445 209.195 182.526 209.303C182.608 209.384 182.635 209.519 182.608 209.627L179.741 225.851C179.687 226.122 179.444 226.311 179.173 226.338H173.468C173.333 226.338 173.225 226.284 173.144 226.176C173.062 226.094 173.035 225.959 173.062 225.851L175.929 209.627C175.983 209.357 176.199 209.168 176.497 209.168H182.202ZM200.132 209.168C200.24 209.14 200.375 209.195 200.456 209.303C200.51 209.384 200.564 209.519 200.537 209.627L199.942 212.98C199.888 213.251 199.645 213.44 199.374 213.44H191.803C191.533 213.467 191.289 213.656 191.235 213.927L189.91 221.552C189.883 221.66 189.91 221.795 189.965 221.876C190.046 221.984 190.181 222.038 190.289 222.038H197.86C197.995 222.038 198.104 222.066 198.185 222.174C198.266 222.255 198.293 222.39 198.266 222.498L197.671 225.851C197.617 226.122 197.373 226.311 197.103 226.311H184.773C183.448 226.311 182.583 225.256 182.799 223.931L184.989 211.547C185.26 210.195 186.422 209.195 187.801 209.168H200.132ZM216.41 209.168C216.518 209.14 216.653 209.195 216.707 209.303C216.788 209.384 216.815 209.519 216.788 209.627L216.22 212.98C216.166 213.251 215.923 213.44 215.652 213.44H212.326C212.056 213.467 211.84 213.656 211.786 213.927L209.677 225.851C209.623 226.122 209.379 226.311 209.109 226.338H203.403C203.268 226.338 203.16 226.284 203.079 226.176C202.998 226.094 202.971 225.959 202.998 225.851L205.107 213.927C205.134 213.818 205.107 213.683 205.026 213.602C204.945 213.494 204.836 213.44 204.701 213.44H201.402C201.267 213.44 201.159 213.413 201.078 213.305C200.997 213.223 200.97 213.088 200.997 212.98L201.592 209.627C201.646 209.357 201.889 209.168 202.159 209.168H216.41ZM218.117 224.845C218.117 224.511 218.161 224.229 218.249 224C218.337 223.763 218.456 223.573 218.606 223.433C218.756 223.283 218.932 223.177 219.134 223.116C219.336 223.045 219.556 223.01 219.794 223.01C220.023 223.01 220.239 223.045 220.441 223.116C220.652 223.177 220.833 223.283 220.982 223.433C221.132 223.573 221.251 223.763 221.339 224C221.427 224.229 221.471 224.511 221.471 224.845C221.471 225.171 221.427 225.453 221.339 225.69C221.251 225.919 221.132 226.108 220.982 226.258C220.833 226.408 220.652 226.518 220.441 226.588C220.239 226.658 220.023 226.694 219.794 226.694C219.556 226.694 219.336 226.658 219.134 226.588C218.932 226.518 218.756 226.408 218.606 226.258C218.456 226.108 218.337 225.919 218.249 225.69C218.161 225.453 218.117 225.171 218.117 224.845ZM339.292 209.168C339.428 209.14 339.536 209.195 339.617 209.303C339.698 209.384 339.725 209.519 339.698 209.627L337.995 219.335C337.859 219.983 337.508 220.578 337.021 221.011L331.721 225.608C331.235 226.067 330.559 226.311 329.883 226.311H328.422C327.801 226.338 327.233 226.067 326.827 225.608L325.637 224.094C325.529 224.012 325.421 223.958 325.286 223.958C325.151 223.958 325.042 224.012 324.934 224.094L323.204 225.608C322.69 226.067 322.041 226.311 321.365 226.311H319.878C319.283 226.338 318.688 226.067 318.31 225.608L314.632 221.011C314.281 220.524 314.145 219.929 314.254 219.335L315.984 209.627C316.038 209.357 316.254 209.168 316.525 209.168H322.257C322.365 209.14 322.501 209.195 322.582 209.303C322.636 209.384 322.663 209.519 322.636 209.627L320.662 220.822C320.662 220.93 320.689 221.065 320.743 221.146L321.338 221.876C321.338 221.903 321.392 221.903 321.419 221.903C321.446 221.903 321.473 221.903 321.5 221.876L322.338 221.146C322.42 221.065 322.501 220.957 322.528 220.822L324.502 209.627C324.556 209.357 324.772 209.168 325.069 209.168H330.775C330.91 209.14 331.018 209.195 331.099 209.303C331.18 209.384 331.208 209.519 331.18 209.627L329.207 220.822C329.18 220.93 329.207 221.065 329.288 221.146L329.856 221.876C329.883 221.903 329.91 221.903 329.937 221.903C329.964 221.903 329.991 221.903 330.018 221.876L330.856 221.146C330.964 221.065 331.018 220.957 331.045 220.822L333.019 209.627C333.073 209.357 333.317 209.168 333.587 209.168H339.292ZM348.449 209.168C348.584 209.14 348.692 209.195 348.773 209.303C348.854 209.384 348.881 209.519 348.854 209.627L345.988 225.851C345.934 226.122 345.691 226.311 345.42 226.338H339.715C339.58 226.338 339.471 226.284 339.39 226.176C339.309 226.094 339.282 225.959 339.309 225.851L342.175 209.627C342.229 209.357 342.446 209.168 342.743 209.168H348.449ZM366.432 209.168C366.567 209.14 366.676 209.195 366.757 209.303C366.838 209.384 366.865 209.519 366.838 209.627L363.972 225.851C363.918 226.122 363.701 226.311 363.404 226.338H357.563C357.374 226.338 357.185 226.203 357.158 226.013L356.373 222.011C356.346 221.876 356.157 221.903 356.13 222.038L355.454 225.851C355.4 226.122 355.157 226.311 354.886 226.311H349.181C349.046 226.338 348.937 226.284 348.856 226.176C348.775 226.094 348.748 225.959 348.775 225.851L351.641 209.627C351.696 209.357 351.912 209.168 352.209 209.168H358.077C358.266 209.14 358.428 209.276 358.455 209.465L359.24 213.467C359.267 213.602 359.456 213.575 359.483 213.44L360.159 209.627C360.213 209.357 360.456 209.168 360.727 209.168H366.432ZM369.009 224.845C369.009 224.511 369.053 224.229 369.141 224C369.229 223.763 369.348 223.573 369.498 223.433C369.648 223.283 369.824 223.177 370.026 223.116C370.228 223.045 370.448 223.01 370.686 223.01C370.915 223.01 371.131 223.045 371.333 223.116C371.544 223.177 371.725 223.283 371.874 223.433C372.024 223.573 372.143 223.763 372.231 224C372.319 224.229 372.363 224.511 372.363 224.845C372.363 225.171 372.319 225.453 372.231 225.69C372.143 225.919 372.024 226.108 371.874 226.258C371.725 226.408 371.544 226.518 371.333 226.588C371.131 226.658 370.915 226.694 370.686 226.694C370.448 226.694 370.228 226.658 370.026 226.588C369.824 226.518 369.648 226.408 369.498 226.258C369.348 226.108 369.229 225.919 369.141 225.69C369.053 225.453 369.009 225.171 369.009 224.845Z" fill="#EDB73E"/>
<path d="M248.885 209.168C250.21 209.168 251.075 210.222 250.859 211.547L249.804 217.496C249.534 218.848 248.371 219.848 246.992 219.875H241.341C241.043 219.902 240.827 220.092 240.773 220.362L239.799 225.851C239.745 226.122 239.502 226.311 239.232 226.338H233.526C233.391 226.338 233.283 226.284 233.202 226.176C233.121 226.094 233.094 225.959 233.121 225.851L235.987 209.627C236.041 209.357 236.257 209.168 236.555 209.168H248.885ZM243.747 213.927C243.774 213.818 243.747 213.683 243.666 213.602C243.585 213.494 243.477 213.44 243.369 213.44H242.476C242.179 213.467 241.963 213.656 241.909 213.927L241.692 215.116C241.665 215.224 241.692 215.36 241.773 215.441C241.854 215.549 241.963 215.603 242.098 215.603H242.99C243.261 215.576 243.477 215.387 243.531 215.116L243.747 213.927ZM259.754 209.168C259.889 209.14 259.997 209.195 260.078 209.303C260.159 209.384 260.186 209.519 260.159 209.627L257.293 225.851C257.239 226.122 256.996 226.311 256.725 226.338H251.02C250.885 226.338 250.776 226.284 250.695 226.176C250.614 226.094 250.587 225.959 250.614 225.851L253.48 209.627C253.534 209.357 253.751 209.168 254.048 209.168H259.754ZM277.683 209.168C277.791 209.14 277.927 209.195 278.008 209.303C278.062 209.384 278.116 209.519 278.089 209.627L277.494 212.98C277.44 213.251 277.196 213.44 276.926 213.44H269.355C269.084 213.467 268.841 213.656 268.787 213.927L267.462 221.552C267.435 221.66 267.462 221.795 267.516 221.876C267.597 221.984 267.732 222.038 267.841 222.038H275.412C275.547 222.038 275.655 222.066 275.736 222.174C275.817 222.255 275.844 222.39 275.817 222.498L275.223 225.851C275.168 226.122 274.925 226.311 274.655 226.311H262.324C261 226.311 260.134 225.256 260.351 223.931L262.541 211.547C262.811 210.195 263.974 209.195 265.353 209.168H277.683ZM297.044 209.952L290.906 215.792C290.852 215.819 290.852 215.873 290.852 215.927L294.556 225.608C294.61 225.77 294.583 225.959 294.475 226.094C294.367 226.23 294.205 226.311 294.015 226.311H287.742C287.417 226.338 287.12 226.149 287.012 225.824L285.227 221.2L284.984 221.417L284.2 225.851C284.146 226.122 283.902 226.311 283.632 226.311H277.927C277.791 226.338 277.683 226.284 277.602 226.176C277.521 226.094 277.494 225.959 277.521 225.851L280.387 209.627C280.441 209.357 280.658 209.168 280.955 209.168H286.66C286.796 209.14 286.904 209.195 286.985 209.303C287.066 209.384 287.093 209.519 287.066 209.627L286.174 214.575C286.174 214.711 286.282 214.738 286.39 214.657L292.014 209.33C292.095 209.222 292.231 209.168 292.393 209.168H296.827C297.233 209.168 297.368 209.627 297.044 209.952ZM298.547 224.845C298.547 224.511 298.591 224.229 298.679 224C298.767 223.763 298.886 223.573 299.036 223.433C299.185 223.283 299.361 223.177 299.564 223.116C299.766 223.045 299.986 223.01 300.224 223.01C300.453 223.01 300.669 223.045 300.871 223.116C301.082 223.177 301.263 223.283 301.412 223.433C301.562 223.573 301.681 223.763 301.769 224C301.857 224.229 301.901 224.511 301.901 224.845C301.901 225.171 301.857 225.453 301.769 225.69C301.681 225.919 301.562 226.108 301.412 226.258C301.263 226.408 301.082 226.518 300.871 226.588C300.669 226.658 300.453 226.694 300.224 226.694C299.986 226.694 299.766 226.658 299.564 226.588C299.361 226.518 299.185 226.408 299.036 226.258C298.886 226.108 298.767 225.919 298.679 225.69C298.591 225.453 298.547 225.171 298.547 224.845Z" fill="#FAF5EF"/>
<path d="M455.482 215.723L396.878 213.845C395.499 213.801 394.357 214.907 394.357 216.286C394.357 217.685 395.528 218.798 396.925 218.726L455.482 215.723Z" fill="#FAF5EF"/>
</svg>
