<svg width="477" height="187" viewBox="0 0 477 187" fill="none" xmlns="http://www.w3.org/2000/svg">
<path d="M157.167 84.1856L157.167 66.5409C151.587 66.554 145.785 66.6892 139.261 66.6892V61.6479H161.912C161.919 64.6481 161.912 69.9512 161.912 72.9167H174.367V27.8413H161.912L161.912 39.7033H139.409C139.397 38.7042 139.409 35.9964 139.409 35.255C146.378 35.255 150.467 35.2392 157.464 35.255V16.869C154.038 16.8768 142.671 16.9047 139.409 16.9047V12.1242C147.86 12.1242 153.417 12.0103 161.912 12.0103C161.921 14.4419 161.963 20.8663 161.912 23.3931C165.117 23.3599 174.144 23.3931 178.889 23.3931C178.815 30.362 178.804 41.1612 178.889 48.0066C182.806 47.9267 212.979 47.9457 228.362 47.9004C231.813 47.8902 232.201 47.8768 233.107 47.8584V53.3445C229.186 53.3306 181.336 53.3445 178.815 53.3445C178.854 62.3226 178.815 68.765 178.815 77.6615C173.182 77.6615 167.547 77.7003 161.912 77.6615C161.955 80.5078 161.912 85.0163 161.912 88.9771H139.261C139.212 87.6892 139.261 85.52 139.261 84.1856C145.043 84.1856 151.85 84.1603 157.167 84.1856Z" fill="#EFB113"/>
<path d="M233.107 47.8584V42.9653H228.362V47.9004C231.813 47.8902 232.201 47.8768 233.107 47.8584Z" fill="#EFB113"/>
<path d="M228.362 53.34V58.1361L233.107 58.1405V53.3445L228.362 53.34Z" fill="#EFB113"/>
<path d="M319.546 84.1856L319.546 66.5409C325.126 66.554 330.929 66.6892 337.453 66.6892V61.6479H314.801C314.795 64.6481 314.801 69.9512 314.801 72.9167H302.346V27.8413H314.801L314.801 39.7033H337.305C337.316 38.7042 337.305 35.9964 337.305 35.255C330.336 35.255 326.246 35.2392 319.25 35.255V16.869C322.676 16.8768 334.043 16.9047 337.305 16.9047V12.1242C328.853 12.1242 323.296 12.0103 314.801 12.0103C314.792 14.4419 314.751 20.8663 314.801 23.3931C311.597 23.3599 302.569 23.3931 297.824 23.3931C297.898 30.362 297.909 41.1612 297.824 48.0066C293.908 47.9267 263.734 47.9457 248.352 47.9004C244.901 47.8902 244.512 47.8768 243.607 47.8584V53.3445C247.528 53.3306 295.377 53.3445 297.898 53.3445C297.859 62.3226 297.898 68.765 297.898 77.6615C303.531 77.6615 309.166 77.7003 314.801 77.6615C314.759 80.5078 314.801 85.0163 314.801 88.9771H337.453C337.502 87.6892 337.453 85.52 337.453 84.1856C331.67 84.1856 324.863 84.1603 319.546 84.1856Z" fill="#EFB113"/>
<path d="M243.607 47.8584V42.9653H248.352V47.9004C244.901 47.8902 244.512 47.8768 243.607 47.8584Z" fill="#EFB113"/>
<path d="M248.352 53.34V58.1361L243.607 58.1405V53.3445L248.352 53.34Z" fill="#EFB113"/>
<circle cx="238.131" cy="50.1168" r="24.7618" stroke="#EFB113" stroke-width="4.44823"/>
<circle cx="238.131" cy="50.1167" r="47.8926" stroke="#414141" stroke-width="4.44823"/>
<path d="M8.6554 132.232H31.9769L38.4684 166.221L59.3857 132.232H75.9752L65.6368 186.088H50.7303L56.7409 158.322L38.4684 186.088H28.3705L21.8789 158.322L16.1087 186.088H0L12.2618 138.695L8.6554 132.232Z" fill="#414141"/>
<path fill-rule="evenodd" clip-rule="evenodd" d="M71.6504 186.182L100.81 137.814L97.8696 132.138H122.129L134.381 186.182H117.228L115.267 177.298H93.4589L87.3329 186.182H71.6504ZM100.81 163.232C103.587 158.79 109.583 149.412 111.347 147.438L113.307 163.232H100.81Z" fill="#414141"/>
<path d="M132.483 132.096L130.056 144.232H146.318L138.794 186.224H155.542L162.824 144.232H180.057L182.97 132.096H132.483Z" fill="#414141"/>
<path d="M255.735 142.711C256.205 139.659 256.869 135.352 257.189 133.277C257.408 131.856 257.31 132.068 255.924 132.068H216.662C211.417 132.552 208.515 134.487 206.304 141.874L203.654 155.604C202.71 161.336 206.304 165.901 212.567 165.901H235.848C236.71 165.901 236.822 165.791 236.656 166.657C236.331 168.35 235.744 171.253 235.57 172.462C235.488 173.038 235.364 173.115 235.043 173.115C231.451 173.115 207.353 173.032 202.226 173.014C201.196 173.01 201.267 172.924 201.015 173.913C199.882 178.36 199.247 180.853 198.114 185.3C197.82 186.452 197.9 186.249 199.081 186.249C215.543 186.249 241.235 186.249 241.235 186.249C246.49 186.249 249.151 184.556 250.389 177.914L253.521 160.262C254.231 156.498 250.844 153.112 245.33 152.907C245.33 152.907 230.768 153.112 221.335 153.163C220.466 153.168 220.495 153.231 220.696 152.386C221.188 150.308 221.465 148.175 221.958 146.097C222.21 145.033 222.196 145.062 223.27 145.046C223.27 145.046 243.015 144.755 253.521 144.6C255.552 144.57 255.426 144.715 255.735 142.711Z" fill="#EDB73E"/>
<path fill-rule="evenodd" clip-rule="evenodd" d="M252.954 186.182L282.113 137.814L279.173 132.138H303.432L315.684 186.182H298.531L296.571 177.298H274.762L268.636 186.182H252.954ZM282.113 163.232C284.89 158.79 290.886 149.412 292.65 147.438L294.61 163.232H282.113Z" fill="#EDB73E"/>
<path d="M311.359 132.282H328.172L335.987 167.804L348.775 132.282H364.641L342.381 186.038H324.857L311.359 132.282Z" fill="#EDB73E"/>
<path d="M367.641 132.009H384.625L392.519 167.891L405.437 132.009H421.464L398.978 186.311H381.276L367.641 132.009Z" fill="#EDB73E"/>
<path d="M446.961 149.968L441.639 132.31H424.464L437.043 163.998L432.447 186.01H448.412L452.04 165.449L476.714 132.31H460.749L446.961 149.968Z" fill="#EDB73E"/>
</svg>
