<svg width="760" height="120" viewBox="0 0 760 120" fill="none" xmlns="http://www.w3.org/2000/svg">
<path d="M24.9608 100.406L24.9608 79.3616C18.3057 79.3772 7.80707 79.5385 0.0259933 79.5385V73.5258H30.6198C30.6276 77.1041 30.6198 83.429 30.6198 86.9659H45.4745V33.2057H30.6198L30.6197 47.3531H0.202814C0.188977 46.1616 0.202814 42.9321 0.202831 42.0479C8.51438 42.0479 16.97 42.0289 25.3145 42.0479V20.1194C21.2284 20.1286 4.09335 20.1619 0.202831 20.1619V14.4604C10.2829 14.4604 20.4881 14.3245 30.6198 14.3245C30.6306 17.2246 30.6802 24.8868 30.6198 27.9004C34.4418 27.8608 45.2089 27.9004 50.8678 27.9004C50.7798 36.212 50.7663 49.092 50.8678 57.2563C55.539 57.161 98.6822 57.1836 117.029 57.1296C121.145 57.1175 121.608 57.1015 122.688 57.0795V63.6227C118.011 63.6061 53.7861 63.6227 50.7798 63.6227C50.8261 74.3305 50.7798 82.0143 50.7798 92.6248C44.0613 92.6248 37.3407 92.6711 30.6198 92.6248C30.6708 96.0195 30.6198 101.397 30.6198 106.121H0.0259933C-0.032423 104.585 0.0259933 101.997 0.0259933 100.406C6.92285 100.406 18.6192 100.376 24.9608 100.406Z" fill="#EDB73E"/>
<path d="M122.688 57.0795V51.2437H117.029V57.1296C121.145 57.1175 121.608 57.1015 122.688 57.0795Z" fill="#EDB73E"/>
<path d="M117.029 63.6173V69.3374L122.688 69.3427V63.6227L117.029 63.6173Z" fill="#EDB73E"/>
<path d="M230.005 100.406L230.005 79.3616C236.66 79.3772 247.159 79.5385 254.94 79.5385V73.5258H224.346C224.338 77.1041 224.346 83.429 224.346 86.9659H209.491V33.2057H224.346L224.346 47.3531H254.763C254.777 46.1616 254.763 42.9321 254.763 42.0479C246.451 42.0479 237.996 42.0289 229.651 42.0479V20.1194C233.737 20.1286 250.872 20.1619 254.763 20.1619V14.4604C244.683 14.4604 234.478 14.3245 224.346 14.3245C224.335 17.2246 224.286 24.8868 224.346 27.9004C220.524 27.8608 209.757 27.9004 204.098 27.9004C204.186 36.212 204.2 49.092 204.098 57.2563C199.427 57.161 156.284 57.1836 137.937 57.1296C133.821 57.1175 133.358 57.1015 132.278 57.0795V63.6227C136.954 63.6061 201.18 63.6227 204.186 63.6227C204.14 74.3305 204.186 82.0143 204.186 92.6248C210.904 92.6248 217.625 92.6711 224.346 92.6248C224.295 96.0195 224.346 101.397 224.346 106.121H254.94C254.998 104.585 254.94 101.997 254.94 100.406C248.043 100.406 236.347 100.376 230.005 100.406Z" fill="#EDB73E"/>
<path d="M132.278 57.0795V51.2437H137.937V57.1296C133.821 57.1175 133.358 57.1015 132.278 57.0795Z" fill="#EDB73E"/>
<path d="M137.937 63.6173V69.3374L132.278 69.3427V63.6227L137.937 63.6173Z" fill="#EDB73E"/>
<circle cx="128.211" cy="59.7729" r="29.5327" stroke="#EDB73E" stroke-width="5.30528"/>
<circle cx="128.211" cy="59.7727" r="57.1202" stroke="#FAF5EF" stroke-width="5.30528"/>
<path d="M291.775 12.845H315.096L321.588 46.834L342.505 12.845H359.095L348.756 66.7008H333.85L339.86 38.9351L321.588 66.7008H311.49L304.998 38.9351L299.228 66.7008H283.119L295.381 19.3077L291.775 12.845Z" fill="#FAF5EF"/>
<path fill-rule="evenodd" clip-rule="evenodd" d="M354.77 66.795L383.929 18.4264L380.989 12.7505H405.248L417.5 66.795H400.347L398.387 57.9109H376.578L370.452 66.795H354.77ZM383.929 43.8446C386.707 39.4026 392.702 30.025 394.466 28.0507L396.426 43.8446H383.929Z" fill="#FAF5EF"/>
<path d="M415.602 12.7087L413.175 24.8451H429.438L421.913 66.8368H438.661L445.943 24.8451H463.177L466.089 12.7087H415.602Z" fill="#FAF5EF"/>
<path d="M538.854 23.3234C539.324 20.272 539.988 15.9644 540.308 13.89C540.527 12.4688 540.43 12.6806 539.043 12.6806H499.782C494.537 13.1644 491.634 15.0994 489.423 22.4872L486.773 36.2165C485.829 41.9483 489.423 46.5134 495.686 46.5134H518.967C519.829 46.5134 519.942 46.4036 519.775 47.2697C519.451 48.9629 518.863 51.8655 518.689 53.0749C518.607 53.6507 518.483 53.7273 518.162 53.7273C514.57 53.7273 490.472 53.6448 485.345 53.6267C484.315 53.6231 484.386 53.5372 484.134 54.5262C483.001 58.9729 482.366 61.4659 481.233 65.9127C480.94 67.0651 481.02 66.8621 482.201 66.8621C498.663 66.8621 524.354 66.8621 524.354 66.8621C529.61 66.8621 532.27 65.169 533.508 58.5265L536.64 40.8746C537.35 37.1107 533.963 33.7243 528.449 33.5197C528.449 33.5197 513.887 33.7243 504.454 33.7759C503.586 33.7807 503.614 33.844 503.815 32.9987C504.308 30.9205 504.584 28.7879 505.077 26.7097C505.329 25.6455 505.315 25.6745 506.389 25.6586C506.389 25.6586 526.135 25.3674 536.64 25.2125C538.671 25.1825 538.545 25.3276 538.854 23.3234Z" fill="#EDB73E"/>
<path fill-rule="evenodd" clip-rule="evenodd" d="M536.073 66.795L565.232 18.4264L562.292 12.7505H586.551L598.803 66.795H581.65L579.69 57.9109H557.881L551.755 66.795H536.073ZM565.232 43.8446C568.01 39.4026 574.005 30.025 575.769 28.0507L577.729 43.8446H565.232Z" fill="#EDB73E"/>
<path d="M594.478 12.8948H611.292L619.106 48.4163L631.894 12.8948H647.76L625.5 66.6507H607.976L594.478 12.8948Z" fill="#EDB73E"/>
<path d="M650.76 12.6221H667.745L675.639 48.504L688.556 12.6221H704.583L682.097 66.9234H664.396L650.76 12.6221Z" fill="#EDB73E"/>
<path d="M730.08 30.5807L724.758 12.9224H707.583L720.162 44.6106L715.566 66.6231H731.531L735.159 46.062L759.833 12.9224H743.868L730.08 30.5807Z" fill="#EDB73E"/>
<path d="M283.119 92.3356L341.723 90.4573C343.102 90.4131 344.244 91.5191 344.244 92.8989C344.244 94.2972 343.073 95.4101 341.676 95.3385L283.119 92.3356Z" fill="#FAF5EF"/>
<path d="M379.711 85.7801C381.036 85.7801 381.901 86.8346 381.685 88.1596L380.63 94.1083C380.36 95.4603 379.197 96.4608 377.818 96.4878H372.166C371.869 96.5149 371.653 96.7042 371.599 96.9746L370.625 102.464C370.571 102.734 370.328 102.923 370.057 102.95H364.352C364.217 102.95 364.109 102.896 364.027 102.788C363.946 102.707 363.919 102.572 363.946 102.464L366.813 86.2397C366.867 85.9693 367.083 85.7801 367.38 85.7801H379.711ZM374.573 90.5391C374.6 90.4309 374.573 90.2957 374.492 90.2146C374.411 90.1064 374.303 90.0524 374.194 90.0524H373.302C373.005 90.0794 372.788 90.2687 372.734 90.5391L372.518 91.7288C372.491 91.837 372.518 91.9722 372.599 92.0533C372.68 92.1615 372.788 92.2155 372.924 92.2155H373.816C374.086 92.1885 374.303 91.9992 374.357 91.7288L374.573 90.5391ZM397.204 85.7801C398.529 85.7801 399.394 86.8346 399.178 88.1596L398.123 94.1083C397.88 95.217 397.069 96.0822 396.014 96.4067L396.501 102.328C396.501 102.653 396.258 102.923 395.933 102.923H390.39C389.984 102.95 389.633 102.626 389.606 102.22L389.146 96.8123C389.119 96.8664 389.092 96.9205 389.092 96.9746L388.119 102.464C388.065 102.734 387.821 102.923 387.551 102.95H381.845C381.71 102.95 381.602 102.896 381.521 102.788C381.44 102.707 381.413 102.572 381.44 102.464L384.306 86.2397C384.36 85.9693 384.577 85.7801 384.874 85.7801H397.204ZM392.067 90.5391C392.094 90.4309 392.067 90.2957 391.985 90.2146C391.904 90.1064 391.796 90.0524 391.688 90.0524H390.796C390.498 90.0794 390.282 90.2687 390.228 90.5391L390.012 91.7288C389.984 91.837 390.012 91.9722 390.093 92.0533C390.174 92.1615 390.282 92.2155 390.417 92.2155H391.309C391.58 92.1885 391.796 91.9992 391.85 91.7288L392.067 90.5391ZM416.828 85.7801C416.963 85.753 417.071 85.8071 417.153 85.9153C417.234 85.9964 417.261 86.1316 417.234 86.2397L416.639 89.5927C416.585 89.8631 416.368 90.0524 416.071 90.0524H408.527C408.229 90.0794 408.013 90.2687 407.959 90.5391L407.743 91.7288C407.716 91.837 407.743 91.9722 407.824 92.0533C407.905 92.1615 408.013 92.2155 408.148 92.2155H415.692C415.828 92.1885 415.936 92.2426 416.017 92.3507C416.098 92.4319 416.125 92.5671 416.098 92.6752L415.503 96.0282C415.449 96.2986 415.233 96.4878 414.935 96.4878H407.391C407.094 96.5149 406.877 96.7042 406.823 96.9746L406.607 98.1643C406.58 98.2725 406.607 98.4077 406.688 98.4888C406.769 98.597 406.877 98.651 407.013 98.651H414.557C414.692 98.651 414.8 98.6781 414.881 98.7862C414.962 98.8674 414.989 99.0026 414.962 99.1107L414.367 102.464C414.313 102.734 414.097 102.923 413.827 102.923L399.577 102.95C399.441 102.95 399.333 102.896 399.252 102.788C399.171 102.707 399.144 102.572 399.171 102.464L402.037 86.2397C402.091 85.9693 402.308 85.7801 402.605 85.7801H416.828ZM432.799 85.7801C434.123 85.7801 434.989 86.8346 434.772 88.1596L432.582 100.544C432.312 101.896 431.149 102.896 429.77 102.95H417.44C417.305 102.95 417.197 102.896 417.115 102.788C417.034 102.707 417.007 102.572 417.034 102.464L419.901 86.2397C419.955 85.9693 420.171 85.7801 420.468 85.7801H432.799ZM427.661 90.5391C427.688 90.4309 427.661 90.2957 427.58 90.2146C427.499 90.1064 427.391 90.0524 427.282 90.0524H426.39C426.093 90.0794 425.876 90.2687 425.822 90.5391L424.47 98.1643C424.443 98.2725 424.47 98.4077 424.551 98.4888C424.633 98.597 424.741 98.651 424.876 98.651H425.768C426.039 98.624 426.255 98.4347 426.309 98.1643L427.661 90.5391ZM444.09 85.7801C444.225 85.753 444.333 85.8071 444.414 85.9153C444.495 85.9964 444.522 86.1316 444.495 86.2397L441.629 102.464C441.575 102.734 441.332 102.923 441.061 102.95H435.356C435.221 102.95 435.113 102.896 435.031 102.788C434.95 102.707 434.923 102.572 434.95 102.464L437.817 86.2397C437.871 85.9693 438.087 85.7801 438.384 85.7801H444.09ZM462.019 85.7801C462.128 85.753 462.263 85.8071 462.344 85.9153C462.398 85.9964 462.452 86.1316 462.425 86.2397L461.83 89.5927C461.776 89.8631 461.533 90.0524 461.262 90.0524H453.691C453.421 90.0794 453.177 90.2687 453.123 90.5391L451.798 98.1643C451.771 98.2725 451.798 98.4077 451.852 98.4888C451.933 98.597 452.069 98.651 452.177 98.651H459.748C459.883 98.651 459.991 98.6781 460.072 98.7862C460.154 98.8674 460.181 99.0026 460.154 99.1107L459.559 102.464C459.505 102.734 459.261 102.923 458.991 102.923H446.661C445.336 102.923 444.47 101.869 444.687 100.544L446.877 88.1596C447.147 86.8076 448.31 85.8071 449.689 85.7801H462.019ZM478.297 85.7801C478.406 85.753 478.541 85.8071 478.595 85.9153C478.676 85.9964 478.703 86.1316 478.676 86.2397L478.108 89.5927C478.054 89.8631 477.811 90.0524 477.54 90.0524H474.214C473.944 90.0794 473.728 90.2687 473.674 90.5391L471.564 102.464C471.51 102.734 471.267 102.923 470.997 102.95H465.291C465.156 102.95 465.048 102.896 464.967 102.788C464.886 102.707 464.859 102.572 464.886 102.464L466.995 90.5391C467.022 90.4309 466.995 90.2957 466.914 90.2146C466.832 90.1064 466.724 90.0524 466.589 90.0524H463.29C463.155 90.0524 463.047 90.0253 462.966 89.9172C462.885 89.836 462.858 89.7008 462.885 89.5927L463.48 86.2397C463.534 85.9693 463.777 85.7801 464.047 85.7801H478.297ZM480.005 101.458C480.005 101.123 480.049 100.842 480.137 100.613C480.225 100.375 480.344 100.186 480.494 100.045C480.643 99.8954 480.819 99.7898 481.022 99.7282C481.224 99.6578 481.444 99.6226 481.682 99.6226C481.911 99.6226 482.126 99.6578 482.329 99.7282C482.54 99.7898 482.721 99.8954 482.87 100.045C483.02 100.186 483.139 100.375 483.227 100.613C483.315 100.842 483.359 101.123 483.359 101.458C483.359 101.783 483.315 102.065 483.227 102.303C483.139 102.532 483.02 102.721 482.87 102.871C482.721 103.02 482.54 103.13 482.329 103.201C482.126 103.271 481.911 103.306 481.682 103.306C481.444 103.306 481.224 103.271 481.022 103.201C480.819 103.13 480.643 103.02 480.494 102.871C480.344 102.721 480.225 102.532 480.137 102.303C480.049 102.065 480.005 101.783 480.005 101.458ZM601.18 85.7801C601.316 85.753 601.424 85.8071 601.505 85.9153C601.586 85.9964 601.613 86.1316 601.586 86.2397L599.882 95.9471C599.747 96.596 599.396 97.1909 598.909 97.6235L593.609 102.22C593.122 102.68 592.446 102.923 591.77 102.923H590.31C589.688 102.95 589.121 102.68 588.715 102.22L587.525 100.706C587.417 100.625 587.309 100.571 587.174 100.571C587.038 100.571 586.93 100.625 586.822 100.706L585.092 102.22C584.578 102.68 583.929 102.923 583.253 102.923H581.766C581.171 102.95 580.576 102.68 580.197 102.22L576.52 97.6235C576.168 97.1368 576.033 96.5419 576.141 95.9471L577.872 86.2397C577.926 85.9693 578.142 85.7801 578.413 85.7801H584.145C584.253 85.753 584.389 85.8071 584.47 85.9153C584.524 85.9964 584.551 86.1316 584.524 86.2397L582.55 97.4342C582.55 97.5424 582.577 97.6776 582.631 97.7587L583.226 98.4888C583.226 98.5158 583.28 98.5158 583.307 98.5158C583.334 98.5158 583.361 98.5158 583.388 98.4888L584.226 97.7587C584.307 97.6776 584.389 97.5694 584.416 97.4342L586.389 86.2397C586.444 85.9693 586.66 85.7801 586.957 85.7801H592.663C592.798 85.753 592.906 85.8071 592.987 85.9153C593.068 85.9964 593.095 86.1316 593.068 86.2397L591.094 97.4342C591.067 97.5424 591.094 97.6776 591.176 97.7587L591.743 98.4888C591.77 98.5158 591.797 98.5158 591.825 98.5158C591.852 98.5158 591.879 98.5158 591.906 98.4888L592.744 97.7587C592.852 97.6776 592.906 97.5694 592.933 97.4342L594.907 86.2397C594.961 85.9693 595.204 85.7801 595.475 85.7801H601.18ZM610.336 85.7801C610.472 85.753 610.58 85.8071 610.661 85.9153C610.742 85.9964 610.769 86.1316 610.742 86.2397L607.876 102.464C607.822 102.734 607.578 102.923 607.308 102.95H601.603C601.467 102.95 601.359 102.896 601.278 102.788C601.197 102.707 601.17 102.572 601.197 102.464L604.063 86.2397C604.117 85.9693 604.334 85.7801 604.631 85.7801H610.336ZM628.32 85.7801C628.455 85.753 628.563 85.8071 628.645 85.9153C628.726 85.9964 628.753 86.1316 628.726 86.2397L625.859 102.464C625.805 102.734 625.589 102.923 625.292 102.95H619.451C619.262 102.95 619.072 102.815 619.045 102.626L618.261 98.624C618.234 98.4888 618.045 98.5158 618.018 98.651L617.342 102.464C617.288 102.734 617.044 102.923 616.774 102.923H611.069C610.933 102.95 610.825 102.896 610.744 102.788C610.663 102.707 610.636 102.572 610.663 102.464L613.529 86.2397C613.583 85.9693 613.8 85.7801 614.097 85.7801H619.965C620.154 85.753 620.316 85.8882 620.343 86.0775L621.128 90.0794C621.155 90.2146 621.344 90.1876 621.371 90.0524L622.047 86.2397C622.101 85.9693 622.344 85.7801 622.615 85.7801H628.32ZM630.897 101.458C630.897 101.123 630.941 100.842 631.029 100.613C631.117 100.375 631.236 100.186 631.386 100.045C631.535 99.8954 631.711 99.7898 631.914 99.7282C632.116 99.6578 632.336 99.6226 632.574 99.6226C632.803 99.6226 633.019 99.6578 633.221 99.7282C633.432 99.7898 633.613 99.8954 633.762 100.045C633.912 100.186 634.031 100.375 634.119 100.613C634.207 100.842 634.251 101.123 634.251 101.458C634.251 101.783 634.207 102.065 634.119 102.303C634.031 102.532 633.912 102.721 633.762 102.871C633.613 103.02 633.432 103.13 633.221 103.201C633.019 103.271 632.803 103.306 632.574 103.306C632.336 103.306 632.116 103.271 631.914 103.201C631.711 103.13 631.535 103.02 631.386 102.871C631.236 102.721 631.117 102.532 631.029 102.303C630.941 102.065 630.897 101.783 630.897 101.458Z" fill="#EDB73E"/>
<path d="M510.773 85.7801C512.098 85.7801 512.963 86.8346 512.747 88.1596L511.692 94.1083C511.422 95.4603 510.259 96.4608 508.88 96.4878H503.229C502.931 96.5149 502.715 96.7042 502.661 96.9746L501.687 102.464C501.633 102.734 501.39 102.923 501.119 102.95H495.414C495.279 102.95 495.171 102.896 495.09 102.788C495.008 102.707 494.981 102.572 495.008 102.464L497.875 86.2397C497.929 85.9693 498.145 85.7801 498.443 85.7801H510.773ZM505.635 90.5391C505.662 90.4309 505.635 90.2957 505.554 90.2146C505.473 90.1064 505.365 90.0524 505.257 90.0524H504.364C504.067 90.0794 503.85 90.2687 503.796 90.5391L503.58 91.7288C503.553 91.837 503.58 91.9722 503.661 92.0533C503.742 92.1615 503.85 92.2155 503.986 92.2155H504.878C505.148 92.1885 505.365 91.9992 505.419 91.7288L505.635 90.5391ZM521.641 85.7801C521.777 85.753 521.885 85.8071 521.966 85.9153C522.047 85.9964 522.074 86.1316 522.047 86.2397L519.181 102.464C519.127 102.734 518.883 102.923 518.613 102.95H512.908C512.772 102.95 512.664 102.896 512.583 102.788C512.502 102.707 512.475 102.572 512.502 102.464L515.368 86.2397C515.422 85.9693 515.639 85.7801 515.936 85.7801H521.641ZM539.571 85.7801C539.679 85.753 539.814 85.8071 539.895 85.9153C539.95 85.9964 540.004 86.1316 539.977 86.2397L539.382 89.5927C539.328 89.8631 539.084 90.0524 538.814 90.0524H531.243C530.972 90.0794 530.729 90.2687 530.675 90.5391L529.35 98.1643C529.323 98.2725 529.35 98.4077 529.404 98.4888C529.485 98.597 529.62 98.651 529.728 98.651H537.3C537.435 98.651 537.543 98.6781 537.624 98.7862C537.705 98.8674 537.732 99.0026 537.705 99.1107L537.11 102.464C537.056 102.734 536.813 102.923 536.543 102.923H524.212C522.887 102.923 522.022 101.869 522.238 100.544L524.429 88.1596C524.699 86.8076 525.862 85.8071 527.241 85.7801H539.571ZM558.932 86.5642L552.793 92.4048C552.739 92.4319 552.739 92.4859 552.739 92.54L556.444 102.22C556.498 102.383 556.471 102.572 556.363 102.707C556.255 102.842 556.092 102.923 555.903 102.923H549.63C549.305 102.95 549.008 102.761 548.9 102.437L547.115 97.8128L546.872 98.0291L546.088 102.464C546.034 102.734 545.79 102.923 545.52 102.923H539.814C539.679 102.95 539.571 102.896 539.49 102.788C539.409 102.707 539.382 102.572 539.409 102.464L542.275 86.2397C542.329 85.9693 542.545 85.7801 542.843 85.7801H548.548C548.683 85.753 548.792 85.8071 548.873 85.9153C548.954 85.9964 548.981 86.1316 548.954 86.2397L548.062 91.188C548.062 91.3232 548.17 91.3503 548.278 91.2692L553.902 85.9423C553.983 85.8341 554.118 85.7801 554.281 85.7801H558.715C559.121 85.7801 559.256 86.2397 558.932 86.5642ZM560.435 101.458C560.435 101.123 560.479 100.842 560.567 100.613C560.655 100.375 560.774 100.186 560.924 100.045C561.073 99.8954 561.249 99.7898 561.452 99.7282C561.654 99.6578 561.874 99.6226 562.112 99.6226C562.341 99.6226 562.556 99.6578 562.759 99.7282C562.97 99.7898 563.151 99.8954 563.3 100.045C563.45 100.186 563.569 100.375 563.657 100.613C563.745 100.842 563.789 101.123 563.789 101.458C563.789 101.783 563.745 102.065 563.657 102.303C563.569 102.532 563.45 102.721 563.3 102.871C563.151 103.02 562.97 103.13 562.759 103.201C562.556 103.271 562.341 103.306 562.112 103.306C561.874 103.306 561.654 103.271 561.452 103.201C561.249 103.13 561.073 103.02 560.924 102.871C560.774 102.721 560.655 102.532 560.567 102.303C560.479 102.065 560.435 101.783 560.435 101.458Z" fill="#FAF5EF"/>
<path d="M717.369 92.3356L658.766 90.4573C657.386 90.4131 656.244 91.5191 656.244 92.8989C656.244 94.2972 657.416 95.4101 658.812 95.3385L717.369 92.3356Z" fill="#FAF5EF"/>
</svg>
