<svg width="214" height="101" viewBox="0 0 214 101" fill="none" xmlns="http://www.w3.org/2000/svg">
<path d="M20.9285 84.1856L20.9285 66.5409C15.3485 66.554 6.54587 66.6892 0.0217991 66.6892V61.6479H25.6733C25.6798 64.6481 25.6733 69.9512 25.6733 72.9167H38.1283V27.8413H25.6733L25.6732 39.7033H0.170055C0.158454 38.7042 0.170055 35.9964 0.170069 35.255C7.13892 35.255 14.2286 35.2392 21.225 35.255V16.869C17.799 16.8768 3.43209 16.9047 0.170069 16.9047V12.1242C8.62171 12.1242 17.1784 12.0103 25.6733 12.0103C25.6823 14.4419 25.7239 20.8663 25.6733 23.3931C28.8779 23.3599 37.9056 23.3931 42.6503 23.3931C42.5765 30.362 42.5652 41.1612 42.6503 48.0066C46.5668 47.9267 82.7405 47.9457 98.123 47.9004C101.574 47.8902 101.963 47.8768 102.868 47.8584V53.3445C98.9471 53.3306 45.0972 53.3445 42.5765 53.3445C42.6154 62.3226 42.5765 68.765 42.5765 77.6615C36.9434 77.6615 31.3085 77.7003 25.6733 77.6615C25.7161 80.5078 25.6733 85.0163 25.6733 88.9771H0.0217991C-0.0271803 87.6892 0.0217991 85.52 0.0217991 84.1856C5.8045 84.1856 15.6113 84.1603 20.9285 84.1856Z" fill="#EDB73E"/>
<path d="M102.868 47.8584V42.9653H98.123V47.9004C101.574 47.8902 101.963 47.8768 102.868 47.8584Z" fill="#EDB73E"/>
<path d="M98.123 53.34V58.1361L102.868 58.1405V53.3445L98.123 53.34Z" fill="#EDB73E"/>
<path d="M192.849 84.1856L192.849 66.5409C198.429 66.554 207.231 66.6892 213.755 66.6892V61.6479H188.104C188.097 64.6481 188.104 69.9512 188.104 72.9167H175.649V27.8413H188.104L188.104 39.7033H213.607C213.619 38.7042 213.607 35.9964 213.607 35.255C206.638 35.255 199.548 35.2392 192.552 35.255V16.869C195.978 16.8768 210.345 16.9047 213.607 16.9047V12.1242C205.155 12.1242 196.599 12.0103 188.104 12.0103C188.095 14.4419 188.053 20.8663 188.104 23.3931C184.899 23.3599 175.871 23.3931 171.127 23.3931C171.2 30.362 171.212 41.1612 171.127 48.0066C167.21 47.9267 131.037 47.9457 115.654 47.9004C112.203 47.8902 111.814 47.8768 110.909 47.8584V53.3445C114.83 53.3306 168.68 53.3445 171.2 53.3445C171.162 62.3226 171.2 68.765 171.2 77.6615C176.834 77.6615 182.469 77.7003 188.104 77.6615C188.061 80.5078 188.104 85.0163 188.104 88.9771H213.755C213.804 87.6892 213.755 85.52 213.755 84.1856C207.973 84.1856 198.166 84.1603 192.849 84.1856Z" fill="#EDB73E"/>
<path d="M110.909 47.8584V42.9653H115.654V47.9004C112.203 47.8902 111.814 47.8768 110.909 47.8584Z" fill="#EDB73E"/>
<path d="M115.654 53.34V58.1361L110.909 58.1405V53.3445L115.654 53.34Z" fill="#EDB73E"/>
<circle cx="107.499" cy="50.1168" r="24.7618" stroke="#EDB73E" stroke-width="4.44823"/>
<circle cx="107.499" cy="50.1167" r="47.8926" stroke="#414141" stroke-width="4.44823"/>
</svg>
