<svg width="113" height="113" viewBox="0 0 113 113" fill="none" xmlns="http://www.w3.org/2000/svg">
<path d="M47.5364 54.5529C50.7829 54.5435 51.1484 54.5312 52 54.5141V59.5754C-9.1605 59.3632 12.4041 59.003 9.11156 59.003C9.11158 57.6192 9.11159 57.1579 9.11158 54.5529C19.9299 54.5141 7.17506 54.6694 47.5364 54.5529Z" fill="#EDB73E"/>
<path d="M52 54.5141V50H47.5364V54.5529C50.7829 54.5435 51.1484 54.5312 52 54.5141Z" fill="#EDB73E"/>
<path d="M47.5364 59.5713V63.9959L52 64V59.5754L47.5364 59.5713Z" fill="#EDB73E"/>
<path d="M65.4636 54.5529C62.2171 54.5435 61.8516 54.5312 61 54.5141V59.5754C122.16 59.3632 100.596 59.003 103.888 59.003C103.888 57.6192 103.888 57.1579 103.888 54.5529C93.0701 54.5141 105.825 54.6694 65.4636 54.5529Z" fill="#EDB73E"/>
<path d="M61 54.5141V50H65.4636V54.5529C62.2171 54.5435 61.8516 54.5312 61 54.5141Z" fill="#EDB73E"/>
<path d="M65.4636 59.5713V63.9959L61 64V59.5754L65.4636 59.5713Z" fill="#EDB73E"/>
<circle cx="56.7618" cy="56.7618" r="24.7618" stroke="#EDB73E" stroke-width="4.44823"/>
<circle cx="56.8926" cy="56.8926" r="45.6685" stroke="#FAF5EF" stroke-width="4.44823"/>
</svg>
