<svg width="477" height="187" viewBox="0 0 477 187" fill="none" xmlns="http://www.w3.org/2000/svg">
<path d="M157.165 84.1856L157.165 66.5409C151.585 66.554 145.783 66.6892 139.259 66.6892V61.6479H161.91C161.917 64.6481 161.91 69.9512 161.91 72.9167H174.365V27.8413H161.91L161.91 39.7033H139.407C139.395 38.7042 139.407 35.9964 139.407 35.255C146.376 35.255 150.465 35.2392 157.462 35.255V16.869C154.036 16.8768 142.669 16.9047 139.407 16.9047V12.1242C147.858 12.1242 153.415 12.0103 161.91 12.0103C161.919 14.4419 161.961 20.8663 161.91 23.3931C165.115 23.3599 174.142 23.3931 178.887 23.3931C178.813 30.362 178.802 41.1612 178.887 48.0066C182.804 47.9267 212.977 47.9457 228.36 47.9004C231.811 47.8902 232.199 47.8768 233.105 47.8584V53.3445C229.184 53.3306 181.334 53.3445 178.813 53.3445C178.852 62.3226 178.813 68.765 178.813 77.6615C173.18 77.6615 167.545 77.7003 161.91 77.6615C161.953 80.5078 161.91 85.0163 161.91 88.9771H139.259C139.21 87.6892 139.259 85.52 139.259 84.1856C145.041 84.1856 151.848 84.1603 157.165 84.1856Z" fill="#EFB113"/>
<path d="M233.105 47.8584V42.9653H228.36V47.9004C231.811 47.8902 232.199 47.8768 233.105 47.8584Z" fill="#EFB113"/>
<path d="M228.36 53.34V58.1361L233.105 58.1405V53.3445L228.36 53.34Z" fill="#EFB113"/>
<path d="M319.544 84.1856L319.544 66.5409C325.124 66.554 330.927 66.6892 337.451 66.6892V61.6479H314.799C314.793 64.6481 314.799 69.9512 314.799 72.9167H302.344V27.8413H314.799L314.799 39.7033H337.303C337.314 38.7042 337.303 35.9964 337.303 35.255C330.334 35.255 326.244 35.2392 319.248 35.255V16.869C322.674 16.8768 334.041 16.9047 337.303 16.9047V12.1242C328.851 12.1242 323.294 12.0103 314.799 12.0103C314.79 14.4419 314.749 20.8663 314.799 23.3931C311.595 23.3599 302.567 23.3931 297.822 23.3931C297.896 30.362 297.908 41.1612 297.822 48.0066C293.906 47.9267 263.732 47.9457 248.35 47.9004C244.899 47.8902 244.51 47.8768 243.605 47.8584V53.3445C247.526 53.3306 295.375 53.3445 297.896 53.3445C297.857 62.3226 297.896 68.765 297.896 77.6615C303.529 77.6615 309.164 77.7003 314.799 77.6615C314.757 80.5078 314.799 85.0163 314.799 88.9771H337.451C337.5 87.6892 337.451 85.52 337.451 84.1856C331.668 84.1856 324.861 84.1603 319.544 84.1856Z" fill="#EFB113"/>
<path d="M243.605 47.8584V42.9653H248.35V47.9004C244.899 47.8902 244.51 47.8768 243.605 47.8584Z" fill="#EFB113"/>
<path d="M248.35 53.34V58.1361L243.605 58.1405V53.3445L248.35 53.34Z" fill="#EFB113"/>
<circle cx="238.129" cy="50.1168" r="24.7618" stroke="#EFB113" stroke-width="4.44823"/>
<circle cx="238.129" cy="50.1167" r="47.8926" stroke="#414141" stroke-width="4.44823"/>
<path d="M8.66517 132.185H32.013L38.5119 166.212L59.4527 132.185H76.0609L65.7109 186.101H50.7875L56.805 158.304L38.5119 186.101H28.4025L21.9036 158.304L16.1268 186.101H0L12.2757 138.655L8.66517 132.185Z" fill="#414141"/>
<path fill-rule="evenodd" clip-rule="evenodd" d="M71.731 186.196L100.924 137.773L97.9798 132.09H122.266L134.532 186.196H117.36L115.397 177.302H93.5641L87.4312 186.196H71.731ZM100.924 163.22C103.704 158.772 109.706 149.384 111.472 147.408L113.435 163.22H100.924Z" fill="#414141"/>
<path d="M132.632 132.048L130.202 144.198H146.483L138.95 186.237H155.717L163.007 144.198H180.26L183.176 132.048H132.632Z" fill="#414141"/>
<path d="M256.023 142.675C256.494 139.62 257.158 135.308 257.479 133.231C257.698 131.808 257.6 132.02 256.212 132.02H216.907C211.656 132.505 208.75 134.442 206.536 141.838L203.883 155.583C202.938 161.321 206.536 165.891 212.807 165.891H236.113C236.976 165.891 237.089 165.782 236.923 166.649C236.598 168.344 236.009 171.25 235.836 172.46C235.753 173.037 235.629 173.114 235.308 173.114C231.712 173.114 207.587 173.031 202.454 173.013C201.422 173.009 201.493 172.923 201.241 173.913C200.107 178.365 199.471 180.861 198.337 185.313C198.043 186.466 198.123 186.263 199.306 186.263C215.786 186.263 241.507 186.263 241.507 186.263C246.768 186.263 249.432 184.568 250.671 177.918L253.806 160.246C254.517 156.478 251.127 153.088 245.606 152.883C245.606 152.883 231.028 153.088 221.584 153.14C220.715 153.144 220.744 153.208 220.944 152.361C221.438 150.281 221.714 148.146 222.208 146.065C222.461 145 222.447 145.029 223.521 145.013C223.521 145.013 243.289 144.722 253.806 144.566C255.84 144.536 255.714 144.682 256.023 142.675Z" fill="#EDB73E"/>
<path fill-rule="evenodd" clip-rule="evenodd" d="M253.239 186.196L282.431 137.773L279.488 132.09H303.774L316.04 186.196H298.868L296.905 177.302H275.072L268.939 186.196H253.239ZM282.431 163.22C285.212 158.772 291.214 149.384 292.98 147.408L294.943 163.22H282.431Z" fill="#EDB73E"/>
<path d="M311.71 132.235H328.542L336.366 167.797L346.924 138.035L344.024 132.235H349.168H365.052L342.767 186.051H325.223L311.71 132.235Z" fill="#EDB73E"/>
<path d="M368.056 132.235H384.888L392.712 167.797L403.27 138.035L400.37 132.235H405.514H421.398L399.113 186.051H381.569L368.056 132.235Z" fill="#EDB73E"/>
<path d="M446.923 149.941L441.596 132.263H424.402L436.995 163.987L432.393 186.024H448.376L452.009 165.44L476.71 132.263H460.727L446.923 149.941Z" fill="#EDB73E"/>
</svg>
