<svg width="808" height="101" viewBox="0 0 808 101" fill="none" xmlns="http://www.w3.org/2000/svg">
<path d="M17.9284 84.1856L17.9285 66.5409C12.3484 66.554 6.54584 66.6892 0.0217686 66.6892V61.6479H22.6732C22.6798 64.6481 22.6732 69.9512 22.6732 72.9167H35.1283V27.8413H22.6732L22.6732 39.7033H0.170025C0.158423 38.7042 0.170025 35.9964 0.170039 35.255C7.13889 35.255 11.2285 35.2392 18.225 35.255V16.869C14.799 16.8768 3.43206 16.9047 0.170039 16.9047V12.1242C8.62168 12.1242 14.1783 12.0103 22.6732 12.0103C22.6823 14.4419 22.7239 20.8663 22.6732 23.3931C25.8778 23.3599 34.9055 23.3931 39.6503 23.3931C39.5765 30.362 39.5651 41.1612 39.6503 48.0066C43.5668 47.9267 73.7405 47.9457 89.123 47.9004C92.5741 47.8902 92.9625 47.8768 93.8678 47.8584V53.3445C89.9471 53.3306 42.0972 53.3445 39.5765 53.3445C39.6153 62.3226 39.5765 68.765 39.5765 77.6615C33.9433 77.6615 28.3085 77.7003 22.6732 77.6615C22.716 80.5078 22.6732 85.0163 22.6732 88.9771H0.0217686C-0.0272108 87.6892 0.0217686 85.52 0.0217686 84.1856C5.80447 84.1856 12.6113 84.1603 17.9284 84.1856Z" fill="#EFB113"/>
<path d="M93.8678 47.8584V42.9653H89.123V47.9004C92.5741 47.8902 92.9625 47.8768 93.8678 47.8584Z" fill="#EFB113"/>
<path d="M89.123 53.34V58.1361L93.8678 58.1405V53.3445L89.123 53.34Z" fill="#EFB113"/>
<path d="M180.307 84.1856L180.307 66.5409C185.887 66.554 191.69 66.6892 198.214 66.6892V61.6479H175.563C175.556 64.6481 175.563 69.9512 175.563 72.9167H163.108V27.8413H175.563L175.563 39.7033H198.066C198.077 38.7042 198.066 35.9964 198.066 35.255C191.097 35.255 187.007 35.2392 180.011 35.255V16.869C183.437 16.8768 194.804 16.9047 198.066 16.9047V12.1242C189.614 12.1242 184.058 12.0103 175.563 12.0103C175.554 14.4419 175.512 20.8663 175.563 23.3931C172.358 23.3599 163.33 23.3931 158.586 23.3931C158.659 30.362 158.671 41.1612 158.586 48.0066C154.669 47.9267 124.495 47.9457 109.113 47.9004C105.662 47.8902 105.273 47.8768 104.368 47.8584V53.3445C108.289 53.3306 156.139 53.3445 158.659 53.3445C158.62 62.3226 158.659 68.765 158.659 77.6615C164.293 77.6615 169.927 77.7003 175.563 77.6615C175.52 80.5078 175.563 85.0163 175.563 88.9771H198.214C198.263 87.6892 198.214 85.52 198.214 84.1856C192.431 84.1856 185.625 84.1603 180.307 84.1856Z" fill="#EFB113"/>
<path d="M104.368 47.8584V42.9653H109.113V47.9004C105.662 47.8902 105.273 47.8768 104.368 47.8584Z" fill="#EFB113"/>
<path d="M109.113 53.34V58.1361L104.368 58.1405V53.3445L109.113 53.34Z" fill="#EFB113"/>
<circle cx="98.8927" cy="50.1168" r="24.7618" stroke="#EFB113" stroke-width="4.44823"/>
<circle cx="98.8926" cy="50.1167" r="47.8926" stroke="#414141" stroke-width="4.44823"/>
<path d="M242.694 17.5806H270.873L278.716 58.6486L303.99 17.5806H324.035L311.543 82.6531H293.532L300.794 49.1046L278.716 82.6531H266.515L258.672 49.1046L251.7 82.6531H232.236L247.051 25.3893L242.694 17.5806Z" fill="#414141"/>
<path fill-rule="evenodd" clip-rule="evenodd" d="M318.809 82.7673L354.042 24.3248L350.489 17.4668H379.801L394.604 82.7673H373.879L371.51 72.033H345.16L337.758 82.7673H318.809ZM354.042 55.037C357.398 49.6698 364.642 38.3391 366.773 35.9537L369.142 55.037H354.042Z" fill="#414141"/>
<path d="M392.311 17.416L389.378 32.08H409.028L399.937 82.8175H420.173L428.971 32.08H449.794L453.314 17.416H392.311Z" fill="#414141"/>
<path d="M541.233 30.2416C541.801 26.5546 542.603 21.3499 542.99 18.8435C543.254 17.1262 543.137 17.3822 541.461 17.3822H494.023C487.685 17.9667 484.178 20.3047 481.507 29.2312L478.305 45.8199C477.164 52.7455 481.507 58.2614 489.075 58.2614H517.204C518.245 58.2614 518.382 58.1288 518.181 59.1752C517.788 61.2211 517.078 64.7282 516.868 66.1895C516.769 66.8852 516.619 66.9778 516.231 66.9778C511.891 66.9778 482.775 66.8781 476.58 66.8562C475.335 66.8518 475.42 66.7481 475.116 67.943C473.747 73.3159 472.98 76.3282 471.611 81.701C471.256 83.0935 471.353 82.8483 472.78 82.8483C492.671 82.8483 523.713 82.8483 523.713 82.8483C530.063 82.8483 533.278 80.8024 534.774 72.7766L538.558 51.4482C539.415 46.9003 535.324 42.8087 528.661 42.5614C528.661 42.5614 511.066 42.8087 499.668 42.8711C498.619 42.8768 498.654 42.9533 498.896 41.9319C499.491 39.421 499.825 36.8441 500.421 34.3332C500.726 33.0473 500.709 33.0823 502.006 33.0632C502.006 33.0632 525.865 32.7113 538.558 32.5241C541.012 32.4879 540.859 32.6632 541.233 30.2416Z" fill="#EDB73E"/>
<path fill-rule="evenodd" clip-rule="evenodd" d="M537.873 82.7668L573.105 24.3244L569.553 17.4663H598.864L613.668 82.7668H592.943L590.574 72.0325H564.223L556.821 82.7668H537.873ZM573.105 55.0365C576.461 49.6693 583.705 38.3386 585.837 35.9532L588.205 55.0365H573.105Z" fill="#EDB73E"/>
<path d="M608.442 17.6406H628.757L638.2 60.5604L650.942 24.6406L647.442 17.6406H653.651H672.822L645.925 82.5925H624.751L608.442 17.6406Z" fill="#EDB73E"/>
<path d="M676.446 17.6406H696.762L706.204 60.5604L718.946 24.6406L715.446 17.6406H721.655H740.826L713.93 82.5925H692.756L676.446 17.6406Z" fill="#EDB73E"/>
<path d="M771.632 39.0099L765.202 17.6738H744.451L759.649 55.9619L754.096 82.559H773.386L777.77 57.7156L807.582 17.6738H788.292L771.632 39.0099Z" fill="#EDB73E"/>
</svg>
