<svg width="334" height="169" viewBox="0 0 334 169" fill="none" xmlns="http://www.w3.org/2000/svg">
<path d="M30.1888 141.756L30.1889 112.045C20.7929 112.067 11.0222 112.295 0.0366551 112.295V103.806H38.1783C38.1894 108.858 38.1783 117.788 38.1783 122.781H59.1508V46.8807H38.1783L38.1783 66.8544H0.286297C0.266761 65.1722 0.286296 60.6126 0.28632 59.3643C12.0208 59.3643 18.9072 59.3375 30.6882 59.3643V28.4049C24.9193 28.418 5.77908 28.465 0.28632 28.465V20.4154C14.5176 20.4154 23.8742 20.2235 38.1784 20.2235C38.1936 24.318 38.2637 35.1358 38.1783 39.3905C43.5744 39.3346 58.7757 39.3905 66.7652 39.3905C66.641 51.1251 66.6218 69.3094 66.7652 80.8361C73.3601 80.7015 124.168 80.7334 150.07 80.6572C155.881 80.6401 156.535 80.6175 158.059 80.5864V89.8243C151.458 89.8009 70.8854 89.8243 66.641 89.8243C66.7064 104.942 66.641 115.79 66.641 130.77C57.1555 130.77 47.6672 130.836 38.1783 130.77C38.2504 135.563 38.1784 143.155 38.1783 149.824H0.0366551C-0.0458189 147.656 0.0366551 144.003 0.0366551 141.756C9.77386 141.756 21.2356 141.713 30.1888 141.756Z" fill="#EDB73E"/>
<path d="M158.059 80.5864V72.3472H150.07V80.6572C155.881 80.6401 156.535 80.6175 158.059 80.5864Z" fill="#EDB73E"/>
<path d="M150.07 89.8167V97.8925L158.059 97.9001V89.8243L150.07 89.8167Z" fill="#EDB73E"/>
<path d="M303.61 141.756L303.61 112.045C313.006 112.067 322.777 112.295 333.763 112.295V103.806H295.621C295.61 108.858 295.621 117.788 295.621 122.781H274.649V46.8807H295.621L295.621 66.8544H333.513C333.533 65.1722 333.513 60.6126 333.513 59.3643C321.778 59.3643 314.892 59.3375 303.111 59.3643V28.4049C308.88 28.418 328.02 28.465 333.513 28.465V20.4154C319.282 20.4154 309.925 20.2235 295.621 20.2235C295.606 24.318 295.536 35.1358 295.621 39.3905C290.225 39.3346 275.024 39.3905 267.034 39.3905C267.158 51.1251 267.178 69.3094 267.034 80.8361C260.439 80.7015 209.631 80.7334 183.729 80.6572C177.918 80.6401 177.264 80.6175 175.74 80.5864V89.8243C182.342 89.8009 262.914 89.8243 267.158 89.8243C267.093 104.942 267.158 115.79 267.158 130.77C276.644 130.77 286.132 130.836 295.621 130.77C295.549 135.563 295.621 143.155 295.621 149.824H333.763C333.845 147.656 333.763 144.003 333.763 141.756C324.025 141.756 312.564 141.713 303.61 141.756Z" fill="#EDB73E"/>
<path d="M175.74 80.5864V72.3472H183.729V80.6572C177.918 80.6401 177.264 80.6175 175.74 80.5864Z" fill="#EDB73E"/>
<path d="M183.729 89.8167V97.8925L175.74 97.9001V89.8243L183.729 89.8167Z" fill="#EDB73E"/>
<circle cx="166.521" cy="84.3893" r="41.6952" stroke="#EDB73E" stroke-width="7.49016"/>
<circle cx="166.521" cy="84.3892" r="80.644" stroke="#F5F0E5" stroke-width="7.49016"/>
</svg>
