<svg width="804" height="101" viewBox="0 0 804 101" fill="none" xmlns="http://www.w3.org/2000/svg">
<path d="M17.9284 84.1856L17.9285 66.5409C12.3484 66.554 6.54584 66.6892 0.0217686 66.6892V61.6479H22.6732C22.6798 64.6481 22.6732 69.9512 22.6732 72.9167H35.1283V27.8413H22.6732L22.6732 39.7033H0.170025C0.158423 38.7042 0.170025 35.9964 0.170039 35.255C7.13889 35.255 11.2285 35.2392 18.225 35.255V16.869C14.799 16.8768 3.43206 16.9047 0.170039 16.9047V12.1242C8.62168 12.1242 14.1783 12.0103 22.6732 12.0103C22.6823 14.4419 22.7239 20.8663 22.6732 23.3931C25.8778 23.3599 34.9055 23.3931 39.6503 23.3931C39.5765 30.362 39.5651 41.1612 39.6503 48.0066C43.5668 47.9267 73.7405 47.9457 89.123 47.9004C92.5741 47.8902 92.9625 47.8768 93.8678 47.8584V53.3445C89.9471 53.3306 42.0972 53.3445 39.5765 53.3445C39.6153 62.3226 39.5765 68.765 39.5765 77.6615C33.9433 77.6615 28.3085 77.7003 22.6732 77.6615C22.716 80.5078 22.6732 85.0163 22.6732 88.9771H0.0217686C-0.0272108 87.6892 0.0217686 85.52 0.0217686 84.1856C5.80447 84.1856 12.6113 84.1603 17.9284 84.1856Z" fill="#EDB73E"/>
<path d="M93.8678 47.8584V42.9653H89.123V47.9004C92.5741 47.8902 92.9625 47.8768 93.8678 47.8584Z" fill="#EDB73E"/>
<path d="M89.123 53.34V58.1361L93.8678 58.1405V53.3445L89.123 53.34Z" fill="#EDB73E"/>
<path d="M180.307 84.1856L180.307 66.5409C185.887 66.554 191.69 66.6892 198.214 66.6892V61.6479H175.562C175.556 64.6481 175.562 69.9512 175.562 72.9167H163.107V27.8413H175.562L175.562 39.7033H198.066C198.077 38.7042 198.066 35.9964 198.066 35.255C191.097 35.255 187.007 35.2392 180.011 35.255V16.869C183.437 16.8768 194.804 16.9047 198.066 16.9047V12.1242C189.614 12.1242 184.057 12.0103 175.562 12.0103C175.553 14.4419 175.512 20.8663 175.562 23.3931C172.358 23.3599 163.33 23.3931 158.585 23.3931C158.659 30.362 158.67 41.1612 158.585 48.0066C154.669 47.9267 124.495 47.9457 109.113 47.9004C105.662 47.8902 105.273 47.8768 104.368 47.8584V53.3445C108.289 53.3306 156.138 53.3445 158.659 53.3445C158.62 62.3226 158.659 68.765 158.659 77.6615C164.292 77.6615 169.927 77.7003 175.562 77.6615C175.52 80.5078 175.562 85.0163 175.562 88.9771H198.214C198.263 87.6892 198.214 85.52 198.214 84.1856C192.431 84.1856 185.624 84.1603 180.307 84.1856Z" fill="#EDB73E"/>
<path d="M104.368 47.8584V42.9653H109.113V47.9004C105.662 47.8902 105.273 47.8768 104.368 47.8584Z" fill="#EDB73E"/>
<path d="M109.113 53.34V58.1361L104.368 58.1405V53.3445L109.113 53.34Z" fill="#EDB73E"/>
<circle cx="98.8927" cy="50.1168" r="24.7618" stroke="#EDB73E" stroke-width="4.44823"/>
<circle cx="98.8926" cy="50.1167" r="47.8926" stroke="#F5F0E5" stroke-width="4.44823"/>
<path d="M248.694 17.5806H276.872L284.716 58.6486L309.99 17.5806H330.034L317.543 82.6531H299.531L306.794 49.1046L284.716 82.6531H272.515L264.671 49.1046L257.699 82.6531H238.235L253.051 25.3893L248.694 17.5806Z" fill="#FAF5EF"/>
<path fill-rule="evenodd" clip-rule="evenodd" d="M324.809 82.7672L360.042 24.3247L356.489 17.4667H385.8L400.604 82.7672H379.879L377.51 72.0329H351.16L343.758 82.7672H324.809ZM360.042 55.0368C363.397 49.6697 370.641 38.339 372.773 35.9536L375.142 55.0368H360.042Z" fill="#FAF5EF"/>
<path d="M398.311 17.416L395.378 32.08H415.028L405.937 82.8175H426.173L434.971 32.08H455.794L459.314 17.416H398.311Z" fill="#FAF5EF"/>
<path d="M537.109 30.2416C537.677 26.5546 538.479 21.3499 538.866 18.8435C539.13 17.1262 539.013 17.3822 537.337 17.3822H489.899C483.561 17.9667 480.054 20.3047 477.383 29.2312L474.181 45.8199C473.04 52.7455 477.383 58.2614 484.951 58.2614H513.08C514.121 58.2614 514.257 58.1288 514.057 59.1752C513.664 61.2211 512.954 64.7282 512.744 66.1895C512.645 66.8852 512.495 66.9778 512.107 66.9778C507.767 66.9778 478.651 66.8781 472.456 66.8562C471.211 66.8518 471.296 66.7481 470.992 67.943C469.623 73.3159 468.856 76.3282 467.487 81.701C467.132 83.0935 467.229 82.8483 468.656 82.8483C488.547 82.8483 519.589 82.8483 519.589 82.8483C525.939 82.8483 529.154 80.8024 530.65 72.7766L534.434 51.4482C535.291 46.9003 531.2 42.8087 524.537 42.5614C524.537 42.5614 506.942 42.8087 495.544 42.8711C494.495 42.8768 494.53 42.9533 494.772 41.9319C495.367 39.421 495.701 36.8441 496.297 34.3332C496.602 33.0473 496.585 33.0823 497.882 33.0632C497.882 33.0632 521.74 32.7113 534.434 32.5241C536.888 32.4879 536.735 32.6632 537.109 30.2416Z" fill="#EDB73E"/>
<path fill-rule="evenodd" clip-rule="evenodd" d="M533.748 82.7671L568.981 24.3246L565.428 17.4666H594.74L609.544 82.7671H588.818L586.45 72.0327H560.099L552.697 82.7671H533.748ZM568.981 55.0367C572.337 49.6695 579.581 38.3389 581.712 35.9535L584.081 55.0367H568.981Z" fill="#EDB73E"/>
<path d="M604.318 17.6409H624.633L634.076 60.5606L646.818 24.6409L643.318 17.6409H649.527H668.698L641.801 82.5928H620.627L604.318 17.6409Z" fill="#EDB73E"/>
<path d="M672.322 17.6409H692.638L702.08 60.5606L714.822 24.6409L711.322 17.6409H717.531H736.702L709.806 82.5928H688.632L672.322 17.6409Z" fill="#EDB73E"/>
<path d="M767.509 39.0104L761.078 17.6743H740.327L755.525 55.9624L749.972 82.5594H769.262L773.646 57.716L803.458 17.6743H784.168L767.509 39.0104Z" fill="#EDB73E"/>
</svg>
