<svg width="477" height="193" viewBox="0 0 477 193" fill="none" xmlns="http://www.w3.org/2000/svg">
<path d="M157.166 84.1856L157.166 66.5409C151.586 66.554 145.783 66.6892 139.259 66.6892V61.6479H161.91C161.917 64.6481 161.91 69.9512 161.91 72.9167H174.365V27.8413H161.91L161.91 39.7033H139.407C139.396 38.7042 139.407 35.9964 139.407 35.255C146.376 35.255 150.466 35.2392 157.462 35.255V16.869C154.036 16.8768 142.669 16.9047 139.407 16.9047V12.1242C147.859 12.1242 153.415 12.0103 161.91 12.0103C161.919 14.4419 161.961 20.8663 161.91 23.3931C165.115 23.3599 174.143 23.3931 178.887 23.3931C178.814 30.362 178.802 41.1612 178.887 48.0066C182.804 47.9267 212.978 47.9457 228.36 47.9004C231.811 47.8902 232.2 47.8768 233.105 47.8584V53.3445C229.184 53.3306 181.334 53.3445 178.814 53.3445C178.852 62.3226 178.814 68.765 178.814 77.6615C173.18 77.6615 167.546 77.7003 161.91 77.6615C161.953 80.5078 161.91 85.0163 161.91 88.9771H139.259C139.21 87.6892 139.259 85.52 139.259 84.1856C145.042 84.1856 151.848 84.1603 157.166 84.1856Z" fill="#EDB73E"/>
<path d="M233.105 47.8584V42.9653H228.36V47.9004C231.811 47.8902 232.2 47.8768 233.105 47.8584Z" fill="#EDB73E"/>
<path d="M228.36 53.34V58.1361L233.105 58.1405V53.3445L228.36 53.34Z" fill="#EDB73E"/>
<path d="M319.544 84.1856L319.544 66.5409C325.124 66.554 330.927 66.6892 337.451 66.6892V61.6479H314.799C314.793 64.6481 314.799 69.9512 314.799 72.9167H302.344V27.8413H314.799L314.8 39.7033H337.303C337.314 38.7042 337.303 35.9964 337.303 35.255C330.334 35.255 326.244 35.2392 319.248 35.255V16.869C322.674 16.8768 334.041 16.9047 337.303 16.9047V12.1242C328.851 12.1242 323.294 12.0103 314.799 12.0103C314.79 14.4419 314.749 20.8663 314.799 23.3931C311.595 23.3599 302.567 23.3931 297.822 23.3931C297.896 30.362 297.908 41.1612 297.822 48.0066C293.906 47.9267 263.732 47.9457 248.35 47.9004C244.899 47.8902 244.51 47.8768 243.605 47.8584V53.3445C247.526 53.3306 295.376 53.3445 297.896 53.3445C297.857 62.3226 297.896 68.765 297.896 77.6615C303.529 77.6615 309.164 77.7003 314.799 77.6615C314.757 80.5078 314.799 85.0163 314.799 88.9771H337.451C337.5 87.6892 337.451 85.52 337.451 84.1856C331.668 84.1856 324.861 84.1603 319.544 84.1856Z" fill="#EDB73E"/>
<path d="M243.605 47.8584V42.9653H248.35V47.9004C244.899 47.8902 244.51 47.8768 243.605 47.8584Z" fill="#EDB73E"/>
<path d="M248.35 53.34V58.1361L243.605 58.1405V53.3445L248.35 53.34Z" fill="#EDB73E"/>
<circle cx="238.13" cy="50.1168" r="24.7618" stroke="#EDB73E" stroke-width="4.44823"/>
<circle cx="238.13" cy="50.1167" r="47.8926" stroke="#414141" stroke-width="4.44823"/>
<path d="M12.8037 138.185H36.1515L42.6504 172.212L63.5912 138.185H80.1995L69.8494 192.101H54.9261L60.9435 164.304L42.6504 192.101H32.541L26.0422 164.304L20.2654 192.101H4.13855L16.4142 144.655L12.8037 138.185Z" fill="#414141"/>
<path fill-rule="evenodd" clip-rule="evenodd" d="M75.8697 192.196L105.062 143.773L102.119 138.09H126.405L138.671 192.196H121.499L119.536 183.302H97.7028L91.5699 192.196H75.8697ZM105.062 169.22C107.843 164.773 113.845 155.384 115.611 153.408L117.573 169.22H105.062Z" fill="#414141"/>
<path d="M136.771 138.049L134.341 150.199H150.622L143.089 192.238H159.856L167.146 150.199H184.399L187.315 138.049H136.771Z" fill="#414141"/>
<path d="M251.885 148.675C252.355 145.62 253.02 141.308 253.34 139.231C253.56 137.808 253.462 138.02 252.074 138.02H212.768C207.517 138.505 204.612 140.442 202.398 147.838L199.745 161.583C198.8 167.321 202.398 171.891 208.668 171.891H231.975C232.838 171.891 232.951 171.782 232.785 172.649C232.459 174.344 231.871 177.25 231.697 178.46C231.615 179.037 231.491 179.114 231.169 179.114C227.573 179.114 203.449 179.031 198.316 179.013C197.284 179.009 197.355 178.923 197.103 179.913C195.969 184.365 195.333 186.861 194.199 191.313C193.905 192.466 193.985 192.263 195.168 192.263C211.648 192.263 237.368 192.263 237.368 192.263C242.63 192.263 245.294 190.568 246.533 183.918L249.668 166.246C250.379 162.478 246.989 159.088 241.468 158.883C241.468 158.883 226.89 159.088 217.446 159.14C216.577 159.144 216.605 159.208 216.806 158.361C217.299 156.281 217.576 154.146 218.07 152.065C218.322 151 218.308 151.029 219.383 151.013C219.383 151.013 239.151 150.722 249.668 150.566C251.702 150.536 251.575 150.682 251.885 148.675Z" fill="#EDB73E"/>
<path fill-rule="evenodd" clip-rule="evenodd" d="M249.1 192.196L278.293 143.773L275.349 138.09H299.636L311.901 192.196H294.729L292.767 183.302H270.934L264.801 192.196H249.1ZM278.293 169.219C281.073 164.772 287.075 155.384 288.842 153.408L290.804 169.219H278.293Z" fill="#EDB73E"/>
<path d="M307.571 138.235H324.404L332.227 173.796L342.785 144.035L339.885 138.235H345.03H360.914L338.629 192.051H321.085L307.571 138.235Z" fill="#EDB73E"/>
<path d="M363.917 138.235H380.75L388.573 173.796L399.131 144.035L396.231 138.235H401.375H417.26L394.974 192.051H377.431L363.917 138.235Z" fill="#EDB73E"/>
<path d="M442.785 155.941L437.457 138.262H420.263L432.856 169.986L428.255 192.024H444.238L447.87 171.439L472.571 138.262H456.588L442.785 155.941Z" fill="#EDB73E"/>
</svg>
