<svg width="472" height="227" viewBox="0 0 472 227" fill="none" xmlns="http://www.w3.org/2000/svg">
<path d="M149.721 84.1856L149.721 66.5409C144.141 66.554 135.339 66.6892 128.815 66.6892V61.6479H154.466C154.473 64.6481 154.466 69.9512 154.466 72.9167H166.921V27.8413H154.466L154.466 39.7033H128.963C128.951 38.7042 128.963 35.9964 128.963 35.255C135.932 35.255 143.021 35.2392 150.018 35.255V16.869C146.592 16.8768 132.225 16.9047 128.963 16.9047V12.1242C137.415 12.1242 145.971 12.0103 154.466 12.0103C154.475 14.4419 154.517 20.8663 154.466 23.3931C157.671 23.3599 166.698 23.3931 171.443 23.3931C171.369 30.362 171.358 41.1612 171.443 48.0066C175.36 47.9267 211.533 47.9457 226.916 47.9004C230.367 47.8902 230.755 47.8768 231.661 47.8584V53.3445C227.74 53.3306 173.89 53.3445 171.369 53.3445C171.408 62.3226 171.369 68.765 171.369 77.6615C165.736 77.6615 160.101 77.7003 154.466 77.6615C154.509 80.5078 154.466 85.0163 154.466 88.9771H128.815C128.766 87.6892 128.815 85.52 128.815 84.1856C134.597 84.1856 144.404 84.1603 149.721 84.1856Z" fill="#EDB73E"/>
<path d="M231.661 47.8584V42.9653H226.916V47.9004C230.367 47.8902 230.755 47.8768 231.661 47.8584Z" fill="#EDB73E"/>
<path d="M226.916 53.34V58.1361L231.661 58.1405V53.3445L226.916 53.34Z" fill="#EDB73E"/>
<path d="M321.641 84.1856L321.641 66.5409C327.222 66.554 336.024 66.6892 342.548 66.6892V61.6479H316.897C316.89 64.6481 316.897 69.9512 316.897 72.9167H304.442V27.8413H316.897L316.897 39.7033H342.4C342.412 38.7042 342.4 35.9964 342.4 35.255C335.431 35.255 328.341 35.2392 321.345 35.255V16.869C324.771 16.8768 339.138 16.9047 342.4 16.9047V12.1242C333.948 12.1242 325.392 12.0103 316.897 12.0103C316.888 14.4419 316.846 20.8663 316.897 23.3931C313.692 23.3599 304.664 23.3931 299.92 23.3931C299.993 30.362 300.005 41.1612 299.92 48.0066C296.003 47.9267 259.829 47.9457 244.447 47.9004C240.996 47.8902 240.607 47.8768 239.702 47.8584V53.3445C243.623 53.3306 297.473 53.3445 299.993 53.3445C299.955 62.3226 299.993 68.765 299.993 77.6615C305.627 77.6615 311.261 77.7003 316.897 77.6615C316.854 80.5078 316.897 85.0163 316.897 88.9771H342.548C342.597 87.6892 342.548 85.52 342.548 84.1856C336.765 84.1856 326.959 84.1603 321.641 84.1856Z" fill="#EDB73E"/>
<path d="M239.702 47.8584V42.9653H244.447V47.9004C240.996 47.8902 240.607 47.8768 239.702 47.8584Z" fill="#EDB73E"/>
<path d="M244.447 53.34V58.1361L239.702 58.1405V53.3445L244.447 53.34Z" fill="#EDB73E"/>
<circle cx="236.292" cy="50.1168" r="24.7618" stroke="#EDB73E" stroke-width="4.44823"/>
<circle cx="236.292" cy="50.1167" r="47.8926" stroke="#414141" stroke-width="4.44823"/>
<path d="M11.3179 132.232H34.6394L41.1309 166.221L62.0481 132.232H78.6376L68.2993 186.088H53.3927L59.4034 158.322L41.1309 186.088H31.0329L24.5414 158.322L18.7711 186.088H2.66248L14.9243 138.695L11.3179 132.232Z" fill="#414141"/>
<path fill-rule="evenodd" clip-rule="evenodd" d="M74.3127 186.182L103.472 137.814L100.532 132.138H124.791L137.043 186.182H119.89L117.93 177.298H96.1213L89.9953 186.182H74.3127ZM103.472 163.232C106.25 158.79 112.245 149.412 114.009 147.438L115.97 163.232H103.472Z" fill="#414141"/>
<path d="M135.145 132.096L132.718 144.232H148.981L141.456 186.224H158.204L165.486 144.232H182.72L185.632 132.096H135.145Z" fill="#414141"/>
<path d="M247.722 142.711C248.192 139.659 248.856 135.352 249.176 133.277C249.395 131.856 249.297 132.068 247.911 132.068H208.65C203.405 132.552 200.502 134.487 198.291 141.874L195.641 155.604C194.697 161.336 198.291 165.901 204.554 165.901H227.835C228.697 165.901 228.81 165.791 228.643 166.657C228.318 168.35 227.731 171.253 227.557 172.462C227.475 173.038 227.351 173.115 227.03 173.115C223.438 173.115 199.34 173.032 194.213 173.014C193.183 173.01 193.254 172.924 193.002 173.913C191.869 178.36 191.234 180.853 190.101 185.3C189.808 186.452 189.887 186.249 191.069 186.249C207.53 186.249 233.222 186.249 233.222 186.249C238.478 186.249 241.138 184.556 242.376 177.914L245.508 160.262C246.218 156.498 242.831 153.112 237.317 152.907C237.317 152.907 222.755 153.112 213.322 153.163C212.454 153.168 212.482 153.231 212.683 152.386C213.176 150.308 213.452 148.175 213.945 146.097C214.197 145.033 214.183 145.062 215.257 145.046C215.257 145.046 235.003 144.755 245.508 144.6C247.539 144.57 247.413 144.715 247.722 142.711Z" fill="#EDB73E"/>
<path fill-rule="evenodd" clip-rule="evenodd" d="M244.941 186.182L274.1 137.814L271.16 132.138H295.419L307.671 186.182H290.518L288.558 177.298H266.749L260.623 186.182H244.941ZM274.1 163.232C276.878 158.79 282.873 149.412 284.637 147.438L286.597 163.232H274.1Z" fill="#EDB73E"/>
<path d="M303.346 132.282H320.159L327.974 167.804L340.762 132.282H356.628L334.368 186.038H316.844L303.346 132.282Z" fill="#EDB73E"/>
<path d="M359.628 132.009H376.612L384.506 167.891L397.424 132.009H413.451L390.965 186.311H373.263L359.628 132.009Z" fill="#EDB73E"/>
<path d="M438.948 149.968L433.626 132.31H416.451L429.03 163.998L424.434 186.01H440.399L444.027 165.449L468.701 132.31H452.736L438.948 149.968Z" fill="#EDB73E"/>
<path d="M18.5565 211.723L77.1604 209.845C78.5395 209.801 79.6815 210.907 79.6815 212.286C79.6815 213.685 78.51 214.798 77.1135 214.726L18.5565 211.723Z" fill="#414141"/>
<path d="M115.148 205.168C116.473 205.168 117.338 206.222 117.122 207.547L116.067 213.496C115.797 214.848 114.634 215.848 113.255 215.875H107.604C107.306 215.902 107.09 216.092 107.036 216.362L106.062 221.851C106.008 222.122 105.765 222.311 105.494 222.338H99.789C99.6538 222.338 99.5457 222.284 99.4645 222.176C99.3834 222.094 99.3564 221.959 99.3834 221.851L102.25 205.627C102.304 205.357 102.52 205.168 102.817 205.168H115.148ZM110.01 209.927C110.037 209.818 110.01 209.683 109.929 209.602C109.848 209.494 109.74 209.44 109.632 209.44H108.739C108.442 209.467 108.225 209.656 108.171 209.927L107.955 211.116C107.928 211.224 107.955 211.36 108.036 211.441C108.117 211.549 108.225 211.603 108.361 211.603H109.253C109.523 211.576 109.74 211.387 109.794 211.116L110.01 209.927ZM132.641 205.168C133.966 205.168 134.831 206.222 134.615 207.547L133.561 213.496C133.317 214.604 132.506 215.47 131.451 215.794L131.938 221.716C131.938 222.04 131.695 222.311 131.37 222.311H125.827C125.422 222.338 125.07 222.013 125.043 221.608L124.583 216.2C124.556 216.254 124.529 216.308 124.529 216.362L123.556 221.851C123.502 222.122 123.258 222.311 122.988 222.338H117.283C117.147 222.338 117.039 222.284 116.958 222.176C116.877 222.094 116.85 221.959 116.877 221.851L119.743 205.627C119.797 205.357 120.014 205.168 120.311 205.168H132.641ZM127.504 209.927C127.531 209.818 127.504 209.683 127.423 209.602C127.341 209.494 127.233 209.44 127.125 209.44H126.233C125.935 209.467 125.719 209.656 125.665 209.927L125.449 211.116C125.422 211.224 125.449 211.36 125.53 211.441C125.611 211.549 125.719 211.603 125.854 211.603H126.747C127.017 211.576 127.233 211.387 127.287 211.116L127.504 209.927ZM152.265 205.168C152.4 205.14 152.509 205.195 152.59 205.303C152.671 205.384 152.698 205.519 152.671 205.627L152.076 208.98C152.022 209.251 151.806 209.44 151.508 209.44H143.964C143.667 209.467 143.45 209.656 143.396 209.927L143.18 211.116C143.153 211.224 143.18 211.36 143.261 211.441C143.342 211.549 143.45 211.603 143.585 211.603H151.13C151.265 211.576 151.373 211.63 151.454 211.738C151.535 211.819 151.562 211.955 151.535 212.063L150.94 215.416C150.886 215.686 150.67 215.875 150.372 215.875H142.828C142.531 215.902 142.315 216.092 142.26 216.362L142.044 217.552C142.017 217.66 142.044 217.795 142.125 217.876C142.206 217.984 142.315 218.038 142.45 218.038H149.994C150.129 218.038 150.237 218.066 150.318 218.174C150.399 218.255 150.426 218.39 150.399 218.498L149.805 221.851C149.75 222.122 149.534 222.311 149.264 222.311L135.014 222.338C134.879 222.338 134.77 222.284 134.689 222.176C134.608 222.094 134.581 221.959 134.608 221.851L137.474 205.627C137.528 205.357 137.745 205.168 138.042 205.168H152.265ZM168.236 205.168C169.561 205.168 170.426 206.222 170.21 207.547L168.019 219.931C167.749 221.283 166.586 222.284 165.207 222.338H152.877C152.742 222.338 152.634 222.284 152.552 222.176C152.471 222.094 152.444 221.959 152.471 221.851L155.338 205.627C155.392 205.357 155.608 205.168 155.905 205.168H168.236ZM163.098 209.927C163.125 209.818 163.098 209.683 163.017 209.602C162.936 209.494 162.828 209.44 162.719 209.44H161.827C161.53 209.467 161.313 209.656 161.259 209.927L159.907 217.552C159.88 217.66 159.907 217.795 159.988 217.876C160.07 217.984 160.178 218.038 160.313 218.038H161.205C161.476 218.011 161.692 217.822 161.746 217.552L163.098 209.927ZM179.527 205.168C179.662 205.14 179.77 205.195 179.851 205.303C179.932 205.384 179.96 205.519 179.932 205.627L177.066 221.851C177.012 222.122 176.769 222.311 176.498 222.338H170.793C170.658 222.338 170.55 222.284 170.469 222.176C170.387 222.094 170.36 221.959 170.387 221.851L173.254 205.627C173.308 205.357 173.524 205.168 173.821 205.168H179.527ZM197.456 205.168C197.565 205.14 197.7 205.195 197.781 205.303C197.835 205.384 197.889 205.519 197.862 205.627L197.267 208.98C197.213 209.251 196.97 209.44 196.699 209.44H189.128C188.858 209.467 188.614 209.656 188.56 209.927L187.235 217.552C187.208 217.66 187.235 217.795 187.289 217.876C187.371 217.984 187.506 218.038 187.614 218.038H195.185C195.32 218.038 195.428 218.066 195.51 218.174C195.591 218.255 195.618 218.39 195.591 218.498L194.996 221.851C194.942 222.122 194.698 222.311 194.428 222.311H182.098C180.773 222.311 179.908 221.256 180.124 219.931L182.314 207.547C182.584 206.195 183.747 205.195 185.126 205.168H197.456ZM213.734 205.168C213.843 205.14 213.978 205.195 214.032 205.303C214.113 205.384 214.14 205.519 214.113 205.627L213.545 208.98C213.491 209.251 213.248 209.44 212.977 209.44H209.651C209.381 209.467 209.165 209.656 209.111 209.927L207.002 221.851C206.947 222.122 206.704 222.311 206.434 222.338H200.728C200.593 222.338 200.485 222.284 200.404 222.176C200.323 222.094 200.296 221.959 200.323 221.851L202.432 209.927C202.459 209.818 202.432 209.683 202.351 209.602C202.27 209.494 202.161 209.44 202.026 209.44H198.727C198.592 209.44 198.484 209.413 198.403 209.305C198.322 209.223 198.295 209.088 198.322 208.98L198.917 205.627C198.971 205.357 199.214 205.168 199.484 205.168H213.734ZM215.442 220.845C215.442 220.511 215.486 220.229 215.574 220C215.662 219.763 215.781 219.573 215.931 219.433C216.08 219.283 216.256 219.177 216.459 219.116C216.661 219.045 216.881 219.01 217.119 219.01C217.348 219.01 217.564 219.045 217.766 219.116C217.977 219.177 218.158 219.283 218.307 219.433C218.457 219.573 218.576 219.763 218.664 220C218.752 220.229 218.796 220.511 218.796 220.845C218.796 221.171 218.752 221.453 218.664 221.69C218.576 221.919 218.457 222.108 218.307 222.258C218.158 222.408 217.977 222.518 217.766 222.588C217.564 222.658 217.348 222.694 217.119 222.694C216.881 222.694 216.661 222.658 216.459 222.588C216.256 222.518 216.08 222.408 215.931 222.258C215.781 222.108 215.662 221.919 215.574 221.69C215.486 221.453 215.442 221.171 215.442 220.845ZM336.617 205.168C336.753 205.14 336.861 205.195 336.942 205.303C337.023 205.384 337.05 205.519 337.023 205.627L335.319 215.335C335.184 215.983 334.833 216.578 334.346 217.011L329.046 221.608C328.559 222.067 327.883 222.311 327.207 222.311H325.747C325.125 222.338 324.558 222.067 324.152 221.608L322.962 220.094C322.854 220.012 322.746 219.958 322.611 219.958C322.476 219.958 322.367 220.012 322.259 220.094L320.529 221.608C320.015 222.067 319.366 222.311 318.69 222.311H317.203C316.608 222.338 316.013 222.067 315.634 221.608L311.957 217.011C311.605 216.524 311.47 215.929 311.578 215.335L313.309 205.627C313.363 205.357 313.579 205.168 313.85 205.168H319.582C319.69 205.14 319.826 205.195 319.907 205.303C319.961 205.384 319.988 205.519 319.961 205.627L317.987 216.822C317.987 216.93 318.014 217.065 318.068 217.146L318.663 217.876C318.663 217.903 318.717 217.903 318.744 217.903C318.771 217.903 318.798 217.903 318.825 217.876L319.663 217.146C319.744 217.065 319.826 216.957 319.853 216.822L321.827 205.627C321.881 205.357 322.097 205.168 322.394 205.168H328.1C328.235 205.14 328.343 205.195 328.424 205.303C328.505 205.384 328.532 205.519 328.505 205.627L326.532 216.822C326.504 216.93 326.532 217.065 326.613 217.146L327.18 217.876C327.207 217.903 327.235 217.903 327.262 217.903C327.289 217.903 327.316 217.903 327.343 217.876L328.181 217.146C328.289 217.065 328.343 216.957 328.37 216.822L330.344 205.627C330.398 205.357 330.642 205.168 330.912 205.168H336.617ZM345.774 205.168C345.909 205.14 346.017 205.195 346.098 205.303C346.179 205.384 346.206 205.519 346.179 205.627L343.313 221.851C343.259 222.122 343.015 222.311 342.745 222.338H337.04C336.904 222.338 336.796 222.284 336.715 222.176C336.634 222.094 336.607 221.959 336.634 221.851L339.5 205.627C339.554 205.357 339.771 205.168 340.068 205.168H345.774ZM363.757 205.168C363.892 205.14 364.001 205.195 364.082 205.303C364.163 205.384 364.19 205.519 364.163 205.627L361.297 221.851C361.242 222.122 361.026 222.311 360.729 222.338H354.888C354.699 222.338 354.51 222.203 354.483 222.013L353.698 218.011C353.671 217.876 353.482 217.903 353.455 218.038L352.779 221.851C352.725 222.122 352.482 222.311 352.211 222.311H346.506C346.371 222.338 346.262 222.284 346.181 222.176C346.1 222.094 346.073 221.959 346.1 221.851L348.966 205.627C349.02 205.357 349.237 205.168 349.534 205.168H355.402C355.591 205.14 355.753 205.276 355.78 205.465L356.565 209.467C356.592 209.602 356.781 209.575 356.808 209.44L357.484 205.627C357.538 205.357 357.781 205.168 358.052 205.168H363.757ZM366.334 220.845C366.334 220.511 366.378 220.229 366.466 220C366.554 219.763 366.673 219.573 366.823 219.433C366.972 219.283 367.148 219.177 367.351 219.116C367.553 219.045 367.773 219.01 368.011 219.01C368.24 219.01 368.456 219.045 368.658 219.116C368.869 219.177 369.05 219.283 369.199 219.433C369.349 219.573 369.468 219.763 369.556 220C369.644 220.229 369.688 220.511 369.688 220.845C369.688 221.171 369.644 221.453 369.556 221.69C369.468 221.919 369.349 222.108 369.199 222.258C369.05 222.408 368.869 222.518 368.658 222.588C368.456 222.658 368.24 222.694 368.011 222.694C367.773 222.694 367.553 222.658 367.351 222.588C367.148 222.518 366.972 222.408 366.823 222.258C366.673 222.108 366.554 221.919 366.466 221.69C366.378 221.453 366.334 221.171 366.334 220.845Z" fill="#EDB73E"/>
<path d="M246.21 205.168C247.535 205.168 248.4 206.222 248.184 207.547L247.129 213.496C246.859 214.848 245.696 215.848 244.317 215.875H238.666C238.368 215.902 238.152 216.092 238.098 216.362L237.124 221.851C237.07 222.122 236.827 222.311 236.557 222.338H230.851C230.716 222.338 230.608 222.284 230.527 222.176C230.446 222.094 230.418 221.959 230.446 221.851L233.312 205.627C233.366 205.357 233.582 205.168 233.88 205.168H246.21ZM241.072 209.927C241.099 209.818 241.072 209.683 240.991 209.602C240.91 209.494 240.802 209.44 240.694 209.44H239.801C239.504 209.467 239.288 209.656 239.233 209.927L239.017 211.116C238.99 211.224 239.017 211.36 239.098 211.441C239.179 211.549 239.288 211.603 239.423 211.603H240.315C240.585 211.576 240.802 211.387 240.856 211.116L241.072 209.927ZM257.079 205.168C257.214 205.14 257.322 205.195 257.403 205.303C257.484 205.384 257.511 205.519 257.484 205.627L254.618 221.851C254.564 222.122 254.32 222.311 254.05 222.338H248.345C248.209 222.338 248.101 222.284 248.02 222.176C247.939 222.094 247.912 221.959 247.939 221.851L250.805 205.627C250.859 205.357 251.076 205.168 251.373 205.168H257.079ZM275.008 205.168C275.116 205.14 275.251 205.195 275.333 205.303C275.387 205.384 275.441 205.519 275.414 205.627L274.819 208.98C274.765 209.251 274.521 209.44 274.251 209.44H266.68C266.409 209.467 266.166 209.656 266.112 209.927L264.787 217.552C264.76 217.66 264.787 217.795 264.841 217.876C264.922 217.984 265.057 218.038 265.166 218.038H272.737C272.872 218.038 272.98 218.066 273.061 218.174C273.142 218.255 273.169 218.39 273.142 218.498L272.547 221.851C272.493 222.122 272.25 222.311 271.98 222.311H259.649C258.324 222.311 257.459 221.256 257.676 219.931L259.866 207.547C260.136 206.195 261.299 205.195 262.678 205.168H275.008ZM294.369 205.952L288.231 211.792C288.176 211.819 288.176 211.873 288.176 211.927L291.881 221.608C291.935 221.77 291.908 221.959 291.8 222.094C291.692 222.23 291.529 222.311 291.34 222.311H285.067C284.742 222.338 284.445 222.149 284.337 221.824L282.552 217.2L282.309 217.417L281.525 221.851C281.471 222.122 281.227 222.311 280.957 222.311H275.251C275.116 222.338 275.008 222.284 274.927 222.176C274.846 222.094 274.819 221.959 274.846 221.851L277.712 205.627C277.766 205.357 277.982 205.168 278.28 205.168H283.985C284.121 205.14 284.229 205.195 284.31 205.303C284.391 205.384 284.418 205.519 284.391 205.627L283.499 210.575C283.499 210.711 283.607 210.738 283.715 210.657L289.339 205.33C289.42 205.222 289.556 205.168 289.718 205.168H294.152C294.558 205.168 294.693 205.627 294.369 205.952ZM295.872 220.845C295.872 220.511 295.916 220.229 296.004 220C296.092 219.763 296.211 219.573 296.361 219.433C296.51 219.283 296.686 219.177 296.889 219.116C297.091 219.045 297.311 219.01 297.549 219.01C297.778 219.01 297.993 219.045 298.196 219.116C298.407 219.177 298.588 219.283 298.737 219.433C298.887 219.573 299.006 219.763 299.094 220C299.182 220.229 299.226 220.511 299.226 220.845C299.226 221.171 299.182 221.453 299.094 221.69C299.006 221.919 298.887 222.108 298.737 222.258C298.588 222.408 298.407 222.518 298.196 222.588C297.993 222.658 297.778 222.694 297.549 222.694C297.311 222.694 297.091 222.658 296.889 222.588C296.686 222.518 296.51 222.408 296.361 222.258C296.211 222.108 296.092 221.919 296.004 221.69C295.916 221.453 295.872 221.171 295.872 220.845Z" fill="#414141"/>
<path d="M452.807 211.723L394.203 209.845C392.824 209.801 391.682 210.907 391.682 212.286C391.682 213.685 392.853 214.798 394.249 214.726L452.807 211.723Z" fill="#414141"/>
</svg>
