<svg width="576" height="66" viewBox="0 0 576 66" fill="none" xmlns="http://www.w3.org/2000/svg">
<path d="M10.4581 0.269287H38.6368L46.4804 41.3373L71.7541 0.269287H91.7988L79.3072 65.3418H61.296L68.5586 31.7933L46.4804 65.3418H34.2793L26.4357 31.7933L19.4637 65.3418H0L14.8156 8.07799L10.4581 0.269287Z" fill="#FAF5EF"/>
<path fill-rule="evenodd" clip-rule="evenodd" d="M86.5732 65.4558L121.806 7.01332L118.253 0.155273H147.565L162.368 65.4558H141.643L139.275 54.7215H112.924L105.522 65.4558H86.5732ZM121.806 37.7254C125.162 32.3583 132.406 21.0276 134.537 18.6422L136.906 37.7254H121.806Z" fill="#FAF5EF"/>
<path d="M160.075 0.104492L157.143 14.7685H176.792L167.701 65.506H187.937L196.735 14.7685H217.558L221.078 0.104492H160.075Z" fill="#FAF5EF"/>
<path d="M308.997 12.9303C309.565 9.2433 310.368 4.03864 310.754 1.53217C311.019 -0.185102 310.901 0.0708736 309.226 0.0708736H261.787C255.45 0.655392 251.943 2.99347 249.271 11.9199L246.069 28.5086C244.929 35.4343 249.271 40.9502 256.839 40.9502H284.968C286.01 40.9502 286.146 40.8175 285.945 41.864C285.553 43.9098 284.842 47.4169 284.633 48.8782C284.533 49.5739 284.384 49.6666 283.996 49.6666C279.656 49.6666 250.539 49.5668 244.344 49.5449C243.099 49.5406 243.185 49.4369 242.88 50.6317C241.512 56.0046 240.744 59.0169 239.376 64.3898C239.021 65.7822 239.117 65.537 240.545 65.537C260.435 65.537 291.477 65.537 291.477 65.537C297.827 65.537 301.042 63.4912 302.538 55.4653L306.322 34.137C307.18 29.5891 303.088 25.4974 296.425 25.2502C296.425 25.2502 278.831 25.4974 267.433 25.5598C266.383 25.5655 266.418 25.642 266.66 24.6207C267.256 22.1097 267.59 19.5329 268.185 17.0219C268.49 15.736 268.473 15.771 269.771 15.7519C269.771 15.7519 293.629 15.4 306.322 15.2128C308.776 15.1766 308.624 15.3519 308.997 12.9303Z" fill="#EDB73E"/>
<path fill-rule="evenodd" clip-rule="evenodd" d="M305.637 65.4555L340.87 7.01307L337.317 0.155029H366.628L381.432 65.4555H360.707L358.338 54.7212H331.987L324.586 65.4555H305.637ZM340.87 37.7252C344.225 32.358 351.469 21.0273 353.601 18.6419L355.969 37.7252H340.87Z" fill="#EDB73E"/>
<path d="M376.206 0.329346H396.522L405.964 43.2491L421.415 0.329346H440.586L413.69 65.2813H392.516L376.206 0.329346Z" fill="#EDB73E"/>
<path d="M444.211 0H464.732L474.27 43.3552L489.878 0H509.244L482.074 65.6109H460.686L444.211 0Z" fill="#EDB73E"/>
<path d="M540.05 21.6989L533.62 0.362793H512.869L528.067 38.6509L522.514 65.2479H541.804L546.188 40.4045L576 0.362793H556.71L540.05 21.6989Z" fill="#EDB73E"/>
</svg>
