<svg width="334" height="169" viewBox="0 0 334 169" fill="none" xmlns="http://www.w3.org/2000/svg">
<path d="M30.1889 141.756L30.1889 112.045C20.793 112.067 11.0222 112.295 0.0366552 112.295V103.806H38.1784C38.1895 108.858 38.1784 117.788 38.1784 122.781H59.1509V46.8808H38.1784L38.1783 66.8546H0.286297C0.266762 65.1724 0.286297 60.6128 0.28632 59.3645C12.0209 59.3645 18.9072 59.3377 30.6882 59.3645V28.4051C24.9193 28.4182 5.77909 28.4651 0.28632 28.4651V20.4156C14.5177 20.4156 23.8742 20.2236 38.1784 20.2236C38.1937 24.3182 38.2637 35.136 38.1784 39.3907C43.5745 39.3347 58.7758 39.3907 66.7653 39.3907C66.6411 51.1253 66.6219 69.3096 66.7653 80.8363C73.3602 80.7017 124.168 80.7337 150.07 80.6574C155.881 80.6403 156.535 80.6177 158.06 80.5866V89.8245C151.458 89.8012 70.8855 89.8245 66.6411 89.8245C66.7065 104.942 66.6411 115.79 66.6411 130.771C57.1556 130.771 47.6673 130.836 38.1784 130.771C38.2505 135.564 38.1784 143.155 38.1784 149.825H0.0366552C-0.045819 147.656 0.0366552 144.003 0.0366552 141.756C9.77388 141.756 21.2356 141.714 30.1889 141.756Z" fill="#EFB113"/>
<path d="M158.06 80.5866V72.3474H150.07V80.6574C155.881 80.6403 156.535 80.6177 158.06 80.5866Z" fill="#EFB113"/>
<path d="M150.07 89.817V97.8928L158.06 97.9003V89.8245L150.07 89.817Z" fill="#EFB113"/>
<path d="M303.611 141.756L303.611 112.045C313.007 112.067 322.778 112.295 333.763 112.295V103.806H295.621C295.61 108.858 295.621 117.788 295.621 122.781H274.649V46.8806H295.621L295.621 66.8544H333.514C333.533 65.1722 333.514 60.6126 333.513 59.3642C321.779 59.3642 314.893 59.3375 303.112 59.3642V28.4048C308.88 28.4179 328.021 28.4649 333.513 28.4649V20.4153C319.282 20.4153 309.926 20.2234 295.621 20.2234C295.606 24.3179 295.536 35.1357 295.621 39.3904C290.225 39.3345 275.024 39.3904 267.034 39.3904C267.159 51.125 267.178 69.3094 267.034 80.8361C260.44 80.7015 209.632 80.7334 183.73 80.6572C177.919 80.6401 177.264 80.6175 175.74 80.5864V89.8243C182.342 89.8009 262.914 89.8243 267.159 89.8243C267.093 104.942 267.159 115.79 267.159 130.771C276.644 130.771 286.132 130.836 295.621 130.771C295.549 135.563 295.621 143.155 295.621 149.824H333.763C333.846 147.656 333.763 144.003 333.763 141.756C324.026 141.756 312.564 141.714 303.611 141.756Z" fill="#EFB113"/>
<path d="M175.74 80.5864V72.3472H183.73V80.6572C177.919 80.6401 177.264 80.6175 175.74 80.5864Z" fill="#EFB113"/>
<path d="M183.73 89.8167V97.8926L175.74 97.9001V89.8243L183.73 89.8167Z" fill="#EFB113"/>
<circle cx="166.521" cy="84.3894" r="41.6953" stroke="#EFB113" stroke-width="7.49017"/>
<circle cx="166.521" cy="84.3893" r="80.6442" stroke="#414141" stroke-width="7.49017"/>
</svg>
