<svg width="576" height="66" viewBox="0 0 576 66" fill="none" xmlns="http://www.w3.org/2000/svg">
<path d="M10.4581 0.211914H38.6368L46.4804 41.2799L71.7541 0.211914H91.7988L79.3072 65.2845H61.296L68.5586 31.736L46.4804 65.2845H34.2793L26.4357 31.736L19.4637 65.2845H0L14.8156 8.02062L10.4581 0.211914Z" fill="#FAF5EF"/>
<path fill-rule="evenodd" clip-rule="evenodd" d="M86.5732 65.3987L121.806 6.95619L118.253 0.0981445H147.565L162.368 65.3987H141.643L139.275 54.6643H112.924L105.522 65.3987H86.5732ZM121.806 37.6683C125.162 32.3011 132.406 20.9705 134.537 18.585L136.906 37.6683H121.806Z" fill="#FAF5EF"/>
<path d="M160.076 0.0473633L157.143 14.7114H176.793L167.701 65.4489H187.937L196.736 14.7114H217.559L221.078 0.0473633H160.076Z" fill="#FAF5EF"/>
<path d="M308.997 12.8729C309.565 9.18592 310.368 3.98127 310.754 1.4748C311.019 -0.242476 310.901 0.0135005 309.226 0.0135005H261.787C255.45 0.598019 251.943 2.9361 249.271 11.8626L246.069 28.4513C244.929 35.3769 249.271 40.8928 256.839 40.8928H284.968C286.01 40.8928 286.146 40.7601 285.945 41.8066C285.553 43.8524 284.842 47.3595 284.633 48.8208C284.533 49.5166 284.384 49.6092 283.996 49.6092C279.656 49.6092 250.539 49.5094 244.344 49.4876C243.099 49.4832 243.185 49.3795 242.88 50.5744C241.512 55.9472 240.744 58.9595 239.376 64.3324C239.021 65.7249 239.117 65.4796 240.545 65.4796C260.435 65.4796 291.477 65.4796 291.477 65.4796C297.827 65.4796 301.042 63.4338 302.538 55.4079L306.322 34.0796C307.18 29.5317 303.088 25.4401 296.425 25.1928C296.425 25.1928 278.831 25.4401 267.433 25.5024C266.383 25.5082 266.418 25.5847 266.66 24.5633C267.256 22.0523 267.59 19.4755 268.185 16.9645C268.49 15.6786 268.473 15.7136 269.771 15.6945C269.771 15.6945 293.629 15.3426 306.322 15.1554C308.776 15.1192 308.624 15.2945 308.997 12.8729Z" fill="#EDB73E"/>
<path fill-rule="evenodd" clip-rule="evenodd" d="M305.637 65.3984L340.87 6.95595L337.317 0.0979004H366.628L381.432 65.3984H360.707L358.338 54.6641H331.987L324.586 65.3984H305.637ZM340.87 37.6681C344.225 32.3009 351.469 20.9702 353.601 18.5848L355.969 37.6681H340.87Z" fill="#EDB73E"/>
<path d="M376.206 0.272217H396.522L405.964 43.192L418.706 7.27222L415.206 0.272217H421.415H440.586L413.69 65.2241H392.516L376.206 0.272217Z" fill="#EDB73E"/>
<path d="M444.211 0.272217H464.526L473.968 43.192L486.711 7.27222L483.211 0.272217H489.42H508.59L481.694 65.2241H460.52L444.211 0.272217Z" fill="#EDB73E"/>
<path d="M539.397 21.6418L532.967 0.305664H512.215L527.414 38.5937L521.86 65.1908H541.151L545.535 40.3474L575.347 0.305664H556.057L539.397 21.6418Z" fill="#EDB73E"/>
</svg>
