<svg width="477" height="55" viewBox="0 0 477 55" fill="none" xmlns="http://www.w3.org/2000/svg">
<path d="M8.6554 0.222656H31.9769L38.4684 34.2117L59.3857 0.222656H75.9752L65.6368 54.0785H50.7303L56.7409 26.3128L38.4684 54.0785H28.3705L21.8789 26.3128L16.1087 54.0785H0L12.2618 6.68535L8.6554 0.222656Z" fill="#FAF5EF"/>
<path fill-rule="evenodd" clip-rule="evenodd" d="M71.6503 54.1729L100.81 5.80432L97.8695 0.128418H122.128L134.38 54.1729H117.228L115.267 45.2889H93.4588L87.3328 54.1729H71.6503ZM100.81 31.2225C103.587 26.7805 109.582 17.4029 111.347 15.4287L113.307 31.2225H100.81Z" fill="#FAF5EF"/>
<path d="M132.483 0.0864258L130.056 12.2228H146.318L138.794 54.2145H155.542L162.824 12.2228H180.057L182.97 0.0864258H132.483Z" fill="#FAF5EF"/>
<path d="M255.734 10.7013C256.205 7.64988 256.869 3.34237 257.188 1.26795C257.407 -0.153316 257.31 0.0585367 255.924 0.0585367H216.662C211.417 0.5423 208.515 2.47736 206.303 9.86515L203.654 23.5944C202.71 29.3262 206.303 33.8913 212.567 33.8913H235.847C236.709 33.8913 236.822 33.7816 236.656 34.6476C236.331 36.3408 235.743 39.2434 235.57 40.4528C235.487 41.0286 235.364 41.1053 235.043 41.1053C231.451 41.1053 207.353 41.0227 202.226 41.0046C201.195 41.001 201.266 40.9152 201.014 41.9041C199.882 46.3508 199.247 48.8439 198.114 53.2906C197.82 54.443 197.9 54.2401 199.081 54.2401C215.543 54.2401 241.234 54.2401 241.234 54.2401C246.49 54.2401 249.151 52.5469 250.389 45.9044L253.52 28.2525C254.23 24.4886 250.844 21.1022 245.33 20.8976C245.33 20.8976 230.768 21.1022 221.334 21.1539C220.466 21.1586 220.495 21.2219 220.695 20.3766C221.188 18.2985 221.465 16.1658 221.957 14.0877C222.21 13.0234 222.196 13.0524 223.269 13.0366C223.269 13.0366 243.015 12.7453 253.52 12.5904C255.552 12.5604 255.425 12.7055 255.734 10.7013Z" fill="#EDB73E"/>
<path fill-rule="evenodd" clip-rule="evenodd" d="M252.953 54.1729L282.113 5.80432L279.173 0.128418H303.431L315.683 54.1729H298.531L296.57 45.2889H274.762L268.636 54.1729H252.953ZM282.113 31.2225C284.89 26.7805 290.885 17.4029 292.65 15.4287L294.61 31.2225H282.113Z" fill="#EDB73E"/>
<path d="M311.359 0.272949H328.172L335.987 35.7945L348.775 0.272949H364.641L342.381 54.0289H324.857L311.359 0.272949Z" fill="#EDB73E"/>
<path d="M367.641 0H384.625L392.519 35.882L405.437 0H421.464L398.978 54.3014H381.276L367.641 0Z" fill="#EDB73E"/>
<path d="M446.96 17.9586L441.638 0.300293H424.464L437.042 31.9885L432.446 54.001H448.411L452.04 33.4399L476.713 0.300293H460.748L446.96 17.9586Z" fill="#EDB73E"/>
</svg>
